<?xml version="1.0" encoding="UTF-8" standalone="no"?>
<!DOCTYPE svg PUBLIC "-//W3C//DTD SVG 1.1//EN" "http://www.w3.org/Graphics/SVG/1.1/DTD/svg11.dtd">
<svg width="100%" height="100%" viewBox="0 0 1550 500" version="1.1" xmlns="http://www.w3.org/2000/svg" xmlns:xlink="http://www.w3.org/1999/xlink" xml:space="preserve" xmlns:serif="http://www.serif.com/" style="fill-rule:evenodd;clip-rule:evenodd;stroke-linecap:round;stroke-linejoin:round;stroke-miterlimit:1.5;">
    <g transform="matrix(1.22923,0,0,0.830222,-372.851,-305.538)">
        <path d="M710.435,587.443C718.422,587.443 725.399,589.67 731.365,594.123C737.331,598.576 741.94,604.963 745.194,613.285C748.449,621.607 750.076,631.316 750.076,642.412C750.076,653.508 748.449,663.217 745.194,671.539C741.94,679.861 737.331,686.249 731.365,690.702C725.399,695.155 718.422,697.381 710.435,697.381L685.142,697.381L685.142,740.743L660.885,740.743L660.885,587.443L710.435,587.443ZM709.252,666.064C714.379,666.064 718.447,663.947 721.455,659.713C724.462,655.479 725.966,649.785 725.966,642.631C725.966,635.477 724.462,629.783 721.455,625.549C718.447,621.315 714.379,619.198 709.252,619.198L684.994,619.198L684.994,666.064L709.252,666.064Z" style="fill:rgb(4,25,92);fill-rule:nonzero;"/>
        <path d="M813.974,632.557L839.119,632.557L793.562,787.609L768.86,787.609L783.06,739.21L754.661,632.557L779.658,632.557L788.089,666.721L796.076,701.98L804.655,666.721L813.974,632.557Z" style="fill:rgb(4,25,92);fill-rule:nonzero;"/>
        <path d="M937.184,630.148C946.454,630.148 953.751,634.163 959.075,642.193C964.4,650.223 967.063,661.246 967.063,675.262L967.063,740.743L943.84,740.743L943.84,679.642C943.84,673.218 942.83,668.218 940.808,664.641C938.787,661.064 935.952,659.275 932.303,659.275C928.26,659.275 925.056,661.319 922.689,665.407C920.322,669.495 919.139,674.897 919.139,681.613L919.139,740.743L896.065,740.743L896.065,679.642C896.065,673.218 895.079,668.218 893.107,664.641C891.134,661.064 888.324,659.275 884.676,659.275C880.633,659.275 877.403,661.319 874.987,665.407C872.571,669.495 871.364,674.897 871.364,681.613L871.364,740.743L848.141,740.743L848.141,632.557L868.257,632.557L869.589,644.602C872.152,639.93 875.234,636.353 878.833,633.871C882.432,631.389 886.303,630.148 890.444,630.148C895.177,630.148 899.418,631.645 903.165,634.638C906.912,637.631 909.87,641.755 912.039,647.011C917.956,635.769 926.338,630.148 937.184,630.148Z" style="fill:rgb(4,25,92);fill-rule:nonzero;"/>
        <path d="M1018.83,630.148C1026.82,630.148 1033.72,632.375 1039.54,636.828C1045.36,641.281 1049.82,647.559 1052.93,655.662C1056.03,663.765 1057.59,673.218 1057.59,684.022C1057.59,687.526 1057.34,691.833 1056.85,696.943L1003.15,696.943C1003.84,702.491 1005.87,706.981 1009.22,710.412C1012.57,713.843 1016.86,715.558 1022.09,715.558C1025.73,715.558 1029.28,714.755 1032.74,713.149C1036.19,711.543 1039.14,709.28 1041.61,706.36L1053.74,725.632C1049.6,731.326 1044.69,735.706 1039.02,738.772C1033.35,741.838 1027.31,743.371 1020.9,743.371C1012.42,743.371 1005.08,741.072 998.864,736.473C992.651,731.874 987.869,725.34 984.516,716.872C981.164,708.404 979.487,698.403 979.487,686.869C979.487,675.773 981.139,665.918 984.442,657.304C987.746,648.69 992.356,642.011 998.272,637.266C1004.19,632.521 1011.04,630.148 1018.83,630.148ZM1019.57,657.304C1014.94,657.304 1011.17,659.056 1008.26,662.56C1005.35,666.064 1003.7,670.955 1003.3,677.233L1035.55,677.233C1035.25,670.955 1033.7,666.064 1030.89,662.56C1028.08,659.056 1024.31,657.304 1019.57,657.304Z" style="fill:rgb(4,25,92);fill-rule:nonzero;"/>
        <path d="M1112.02,630.148C1115.37,630.148 1118.72,631.061 1122.08,632.886C1125.43,634.711 1128.34,637.375 1130.8,640.879L1121.04,666.064C1118.97,664.166 1117.05,662.779 1115.27,661.903C1113.5,661.027 1111.62,660.589 1109.65,660.589C1104.72,660.589 1100.83,662.925 1097.96,667.597C1095.11,672.269 1093.67,679.131 1093.67,688.183L1093.67,740.743L1070.45,740.743L1070.45,632.557L1090.72,632.557L1092.49,646.135C1097.23,635.477 1103.73,630.148 1112.02,630.148Z" style="fill:rgb(4,25,92);fill-rule:nonzero;"/>
        <path d="M1150.33,621.826C1146.28,621.826 1143,620.074 1140.49,616.57C1137.98,613.066 1136.72,608.613 1136.72,603.211C1136.72,597.663 1138,593.137 1140.56,589.633C1143.13,586.129 1146.38,584.377 1150.33,584.377C1154.27,584.377 1157.52,586.129 1160.09,589.633C1162.65,593.137 1163.93,597.663 1163.93,603.211C1163.93,608.613 1162.68,613.066 1160.16,616.57C1157.65,620.074 1154.37,621.826 1150.33,621.826ZM1138.64,632.557L1161.86,632.557L1161.86,740.743L1138.64,740.743L1138.64,632.557Z" style="fill:rgb(4,25,92);fill-rule:nonzero;"/>
        <path d="M1255.93,632.557L1255.93,787.609L1232.71,787.609L1232.71,730.231C1226.7,738.699 1219.15,742.933 1210.08,742.933C1203.28,742.933 1197.21,740.561 1191.89,735.816C1186.56,731.071 1182.42,724.428 1179.46,715.887C1176.51,707.346 1175.03,697.6 1175.03,686.65C1175.03,675.7 1176.51,665.955 1179.46,657.414C1182.42,648.873 1186.56,642.23 1191.89,637.485C1197.21,632.74 1203.28,630.367 1210.08,630.367C1220.14,630.367 1228.23,635.331 1234.34,645.259L1235.82,632.557L1255.93,632.557ZM1215.56,714.025C1220.68,714.025 1224.85,711.47 1228.05,706.36C1231.26,701.25 1232.86,694.68 1232.86,686.65C1232.86,678.62 1231.26,672.05 1228.05,666.94C1224.85,661.83 1220.68,659.275 1215.56,659.275C1210.43,659.275 1206.24,661.794 1202.98,666.831C1199.73,671.868 1198.1,678.474 1198.1,686.65C1198.1,694.826 1199.73,701.433 1202.98,706.47C1206.24,711.507 1210.43,714.025 1215.56,714.025Z" style="fill:rgb(4,25,92);fill-rule:nonzero;"/>
        <path d="M1420.56,740.743L1412.87,713.149L1361.84,713.149L1354.15,740.743L1328.26,740.743L1374.71,587.443L1400.59,587.443L1446.74,740.743L1420.56,740.743ZM1387.58,621.826L1370.57,682.27L1404.29,682.27L1387.58,621.826Z" style="fill:rgb(136,196,8);fill-rule:nonzero;"/>
        <path d="M1506.5,587.443C1514.49,587.443 1521.46,589.67 1527.43,594.123C1533.39,598.576 1538,604.963 1541.26,613.285C1544.51,621.607 1546.14,631.316 1546.14,642.412C1546.14,653.508 1544.51,663.217 1541.26,671.539C1538,679.861 1533.39,686.249 1527.43,690.702C1521.46,695.155 1514.49,697.381 1506.5,697.381L1481.2,697.381L1481.2,740.743L1456.95,740.743L1456.95,587.443L1506.5,587.443ZM1505.32,666.064C1510.44,666.064 1514.51,663.947 1517.52,659.713C1520.53,655.479 1522.03,649.785 1522.03,642.631C1522.03,635.477 1520.53,629.783 1517.52,625.549C1514.51,621.315 1510.44,619.198 1505.32,619.198L1481.06,619.198L1481.06,666.064L1505.32,666.064Z" style="fill:rgb(136,196,8);fill-rule:nonzero;"/>
    </g>
    <g transform="matrix(0.943516,0,0,1.02781,-256.704,-495.235)">
        <ellipse cx="1375.59" cy="671.612" rx="17.598" ry="16.155" style="fill:rgb(1,137,251);stroke:rgb(1,137,251);stroke-width:1.01px;"/>
    </g>
    <g transform="matrix(0.794681,0,0,0.747525,-96.2552,-92.4886)">
        <path d="M144.636,566.643C144.636,566.643 127.783,582.493 140.498,582.51C153.212,582.527 198.601,582.528 198.601,582.528C198.601,582.528 221.803,583.73 243.67,561.551C265.537,539.373 385.654,417.403 385.654,417.403L296.701,417.472C296.701,417.472 289.627,416.828 278.674,428.269C267.72,439.709 144.636,566.643 144.636,566.643Z" style="fill:url(#_Linear1);"/>
    </g>
    <g transform="matrix(0.868484,0,0,0.836792,-116.402,-147.029)">
        <path d="M216.352,631.274L323.687,522.629C323.687,522.629 338.186,504.725 367.012,504.689C395.839,504.652 427.741,504.313 427.741,504.313L346.734,587.436C346.734,587.436 306.401,631.324 258.619,631.479C210.837,631.634 216.352,631.274 216.352,631.274Z" style="fill:url(#_Linear2);"/>
    </g>
    <g transform="matrix(0.642232,0,0,0.6705,-57.6237,-60.439)">
        <path d="M335.802,340.546L281.937,395.659C281.937,395.659 272.314,393.056 267.586,389.384C262.859,385.711 258.103,381.132 257.688,380.369C257.274,379.606 254.776,376.424 254.643,373.314C254.51,370.204 254.71,364.945 254.71,364.945C254.71,364.945 258.514,341.303 295.668,340.705C332.823,340.107 335.802,340.546 335.802,340.546Z" style="fill:rgb(1,12,89);"/>
    </g>
    <g transform="matrix(0.868484,0,0,0.6705,-115.185,-59.687)">
        <path d="M254.575,364.615L254.619,267.455C254.619,267.455 256.144,248.624 274.386,248.559C292.627,248.493 476.494,248.466 476.494,248.466C476.494,248.466 492.078,248.784 502.019,254.283C511.959,259.781 516.698,261.964 522.154,268.305C527.609,274.646 533.736,281.334 536.593,293.653C539.45,305.972 540.293,314.449 540.246,320.516C540.199,326.584 540.258,329.722 537.975,342.279C535.692,354.836 532.283,360.334 529.578,365.977C526.872,371.621 521.989,380.497 514.481,388.817C506.973,397.137 506.238,396.896 504.747,398.133C503.256,399.369 507.517,394.709 507.427,394.01C507.336,393.31 511.595,388.55 511.626,380.1C511.657,371.65 511.766,369.326 511.487,367.143C511.208,364.96 507.78,356.08 503.95,352.595C500.12,349.11 496.576,345.353 494.729,344.336C492.881,343.318 487.755,340.569 487.755,340.569L483.188,339.074L479.601,338.241L476.743,338.204L295.743,340.186C295.743,340.186 258.815,341.732 254.575,364.615Z" style="fill:url(#_Linear3);"/>
    </g>
    <g transform="matrix(0.868484,0,0,0.6705,-117.462,-59.8791)">
        <path d="M330.673,515.532L401.702,442.623C401.702,442.623 430.29,415.697 461.101,415.689C491.913,415.682 511.756,392.623 516.723,386.465C521.69,380.308 541.808,355.076 540.758,317.627C539.708,280.179 519.549,264.615 517.781,263.091C516.013,261.566 502.507,253.948 502.432,253.734C502.358,253.521 486.874,249.406 486.734,249.406C486.594,249.406 510.653,252.624 510.914,252.693C511.174,252.763 525.494,256.573 540.457,266.515C555.42,276.457 569.988,292.601 579.976,317.641C589.964,342.681 587.428,379.218 587.733,380.878C588.038,382.539 583.853,416.767 565.718,443.102C547.584,469.436 527.308,482.422 511.747,490.704C496.186,498.986 472.846,503.391 459.036,503.376C445.226,503.361 370.371,503.424 370.371,503.424C370.371,503.424 343.716,503.048 330.673,515.532Z" style="fill:url(#_Linear4);"/>
    </g>
    <g transform="matrix(0.888687,0,0,0.828968,-73.991,7.47811)">
        <path d="M283.426,197.999L319.799,240.605L247.054,240.605L283.426,197.999Z" style="fill:rgb(0,30,122);"/>
    </g>
    <defs>
        <linearGradient id="_Linear1" x1="0" y1="0" x2="1" y2="-0.00114975" gradientUnits="userSpaceOnUse" gradientTransform="matrix(249.903,-165.137,155.537,265.328,135.751,582.54)"><stop offset="0" style="stop-color:rgb(157,214,0);stop-opacity:1"/><stop offset="1" style="stop-color:rgb(16,91,60);stop-opacity:1"/></linearGradient>
        <linearGradient id="_Linear2" x1="0" y1="0" x2="1" y2="-0.00111239" gradientUnits="userSpaceOnUse" gradientTransform="matrix(211.584,-127.205,122.72,219.316,216.158,631.518)"><stop offset="0" style="stop-color:rgb(0,168,70);stop-opacity:1"/><stop offset="1" style="stop-color:rgb(6,36,60);stop-opacity:1"/></linearGradient>
        <linearGradient id="_Linear3" x1="0" y1="0" x2="1" y2="-6.32905e-06" gradientUnits="userSpaceOnUse" gradientTransform="matrix(285.699,-0.912037,0.705027,369.586,254.55,305.247)"><stop offset="0" style="stop-color:rgb(3,54,155);stop-opacity:1"/><stop offset="0.41" style="stop-color:rgb(0,120,224);stop-opacity:1"/><stop offset="0.6" style="stop-color:rgb(0,71,179);stop-opacity:1"/><stop offset="1" style="stop-color:rgb(8,24,84);stop-opacity:1"/></linearGradient>
        <linearGradient id="_Linear4" x1="0" y1="0" x2="1" y2="-0.000965223" gradientUnits="userSpaceOnUse" gradientTransform="matrix(355.568,-208.905,161.489,459.97,242.317,576.095)"><stop offset="0" style="stop-color:rgb(4,12,73);stop-opacity:1"/><stop offset="0.39" style="stop-color:rgb(3,42,114);stop-opacity:1"/><stop offset="0.78" style="stop-color:rgb(0,136,240);stop-opacity:1"/><stop offset="1" style="stop-color:rgb(101,239,251);stop-opacity:1"/></linearGradient>
    </defs>
</svg>
