<?xml version="1.0" encoding="UTF-8" standalone="no"?>
<!DOCTYPE svg PUBLIC "-//W3C//DTD SVG 1.1//EN" "http://www.w3.org/Graphics/SVG/1.1/DTD/svg11.dtd">
<svg width="100%" height="100%" viewBox="0 0 3000 500" version="1.1" xmlns="http://www.w3.org/2000/svg" xmlns:xlink="http://www.w3.org/1999/xlink" xml:space="preserve" xmlns:serif="http://www.serif.com/" style="fill-rule:evenodd;clip-rule:evenodd;stroke-linecap:round;stroke-linejoin:round;stroke-miterlimit:1.5;">
    <g transform="matrix(2.66327,0,0,1.12061,-1155.16,-501.456)">
        <path d="M687.516,587.443C692.492,587.443 696.838,589.67 700.555,594.123C704.272,598.576 707.144,604.963 709.171,613.285C711.198,621.607 712.212,631.316 712.212,642.412C712.212,653.508 711.198,663.217 709.171,671.539C707.144,679.861 704.272,686.249 700.555,690.702C696.838,695.155 692.492,697.381 687.516,697.381L671.759,697.381L671.759,740.743L656.647,740.743L656.647,587.443L687.516,587.443ZM686.779,666.064C689.973,666.064 692.507,663.947 694.381,659.713C696.255,655.479 697.192,649.785 697.192,642.631C697.192,635.477 696.255,629.783 694.381,625.549C692.507,621.315 689.973,619.198 686.779,619.198L671.667,619.198L671.667,666.064L686.779,666.064Z" style="fill:rgb(4,25,92);fill-rule:nonzero;"/>
        <path d="M752.02,632.557L767.685,632.557L739.303,787.609L723.914,787.609L732.761,739.21L715.068,632.557L730.641,632.557L735.894,666.721L740.87,701.98L746.214,666.721L752.02,632.557Z" style="fill:rgb(4,25,92);fill-rule:nonzero;"/>
        <path d="M828.779,630.148C834.553,630.148 839.099,634.163 842.417,642.193C845.734,650.223 847.393,661.246 847.393,675.262L847.393,740.743L832.925,740.743L832.925,679.642C832.925,673.218 832.296,668.218 831.036,664.641C829.777,661.064 828.011,659.275 825.738,659.275C823.219,659.275 821.223,661.319 819.748,665.407C818.274,669.495 817.537,674.897 817.537,681.613L817.537,740.743L803.162,740.743L803.162,679.642C803.162,673.218 802.547,668.218 801.319,664.641C800.09,661.064 798.339,659.275 796.066,659.275C793.547,659.275 791.536,661.319 790.031,665.407C788.525,669.495 787.773,674.897 787.773,681.613L787.773,740.743L773.306,740.743L773.306,632.557L785.838,632.557L786.667,644.602C788.264,639.93 790.184,636.353 792.426,633.871C794.669,631.389 797.08,630.148 799.66,630.148C802.609,630.148 805.25,631.645 807.585,634.638C809.919,637.631 811.762,641.755 813.114,647.011C816.799,635.769 822.021,630.148 828.779,630.148Z" style="fill:rgb(4,25,92);fill-rule:nonzero;"/>
        <path d="M879.644,630.148C884.62,630.148 888.92,632.375 892.545,636.828C896.169,641.281 898.949,647.559 900.884,655.662C902.819,663.765 903.787,673.218 903.787,684.022C903.787,687.526 903.633,691.833 903.326,696.943L869.877,696.943C870.307,702.491 871.566,706.981 873.655,710.412C875.743,713.843 878.416,715.558 881.672,715.558C883.945,715.558 886.156,714.755 888.306,713.149C890.456,711.543 892.299,709.28 893.835,706.36L901.391,725.632C898.811,731.326 895.755,735.706 892.222,738.772C888.69,741.838 884.927,743.371 880.934,743.371C875.651,743.371 871.075,741.072 867.204,736.473C863.334,731.874 860.355,725.34 858.266,716.872C856.177,708.404 855.133,698.403 855.133,686.869C855.133,675.773 856.162,665.918 858.22,657.304C860.278,648.69 863.15,642.011 866.836,637.266C870.522,632.521 874.791,630.148 879.644,630.148ZM880.105,657.304C877.218,657.304 874.868,659.056 873.056,662.56C871.243,666.064 870.214,670.955 869.969,677.233L890.057,677.233C889.873,670.955 888.905,666.064 887.154,662.56C885.404,659.056 883.054,657.304 880.105,657.304Z" style="fill:rgb(4,25,92);fill-rule:nonzero;"/>
        <path d="M937.697,630.148C939.786,630.148 941.875,631.061 943.963,632.886C946.052,634.711 947.864,637.375 949.4,640.879L943.318,666.064C942.028,664.166 940.83,662.779 939.725,661.903C938.619,661.027 937.452,660.589 936.223,660.589C933.151,660.589 930.725,662.925 928.943,667.597C927.162,672.269 926.271,679.131 926.271,688.183L926.271,740.743L911.804,740.743L911.804,632.557L924.428,632.557L925.534,646.135C928.483,635.477 932.537,630.148 937.697,630.148Z" style="fill:rgb(4,25,92);fill-rule:nonzero;"/>
        <path d="M961.564,621.826C959.045,621.826 957.002,620.074 955.436,616.57C953.869,613.066 953.086,608.613 953.086,603.211C953.086,597.663 953.885,593.137 955.482,589.633C957.079,586.129 959.106,584.377 961.564,584.377C964.021,584.377 966.048,586.129 967.645,589.633C969.243,593.137 970.041,597.663 970.041,603.211C970.041,608.613 969.258,613.066 967.692,616.57C966.125,620.074 964.082,621.826 961.564,621.826ZM954.284,632.557L968.751,632.557L968.751,740.743L954.284,740.743L954.284,632.557Z" style="fill:rgb(4,25,92);fill-rule:nonzero;"/>
        <path d="M1027.36,632.557L1027.36,787.609L1012.89,787.609L1012.89,730.231C1009.14,738.699 1004.44,742.933 998.791,742.933C994.553,742.933 990.775,740.561 987.457,735.816C984.14,731.071 981.56,724.428 979.717,715.887C977.874,707.346 976.952,697.6 976.952,686.65C976.952,675.7 977.874,665.955 979.717,657.414C981.56,648.873 984.14,642.23 987.457,637.485C990.775,632.74 994.553,630.367 998.791,630.367C1005.06,630.367 1010.1,635.331 1013.9,645.259L1014.83,632.557L1027.36,632.557ZM1002.2,714.025C1005.39,714.025 1007.99,711.47 1009.99,706.36C1011.98,701.25 1012.98,694.68 1012.98,686.65C1012.98,678.62 1011.98,672.05 1009.99,666.94C1007.99,661.83 1005.39,659.275 1002.2,659.275C999.006,659.275 996.396,661.794 994.368,666.831C992.341,671.868 991.327,678.474 991.327,686.65C991.327,694.826 992.341,701.433 994.368,706.47C996.396,711.507 999.006,714.025 1002.2,714.025Z" style="fill:rgb(4,25,92);fill-rule:nonzero;"/>
        <path d="M1104.64,744.247C1099.36,744.247 1094.28,742.349 1089.39,738.553C1084.51,734.757 1080.29,729.428 1076.72,722.566L1084.56,696.505C1090.27,707.163 1096.94,712.492 1104.55,712.492C1108.36,712.492 1111.39,710.959 1113.63,707.893C1115.87,704.827 1116.99,700.666 1116.99,695.41C1116.99,690.446 1115.95,686.577 1113.86,683.803C1111.77,681.029 1108.45,679.058 1103.91,677.89C1095.12,675.554 1088.69,670.663 1084.6,663.217C1080.52,655.771 1078.47,645.113 1078.47,631.243C1078.47,621.899 1079.58,613.65 1081.79,606.496C1084,599.342 1087.11,593.794 1091.1,589.852C1095.09,585.91 1099.7,583.939 1104.92,583.939C1109.41,583.939 1113.78,585.472 1118.05,588.538C1122.32,591.604 1126.09,595.911 1129.34,601.459L1122.25,626.644C1117.21,618.322 1111.65,614.161 1105.57,614.161C1101.82,614.161 1098.83,615.621 1096.58,618.541C1094.34,621.461 1093.22,625.403 1093.22,630.367C1093.22,635.185 1094.19,638.908 1096.12,641.536C1098.06,644.164 1101.3,646.135 1105.84,647.449C1114.57,649.785 1121.08,654.932 1125.38,662.889C1129.68,670.846 1131.83,681.759 1131.83,695.629C1131.83,705.265 1130.69,713.77 1128.42,721.143C1126.15,728.516 1122.95,734.21 1118.84,738.225C1114.72,742.24 1109.99,744.247 1104.64,744.247Z" style="fill:rgb(136,196,8);fill-rule:nonzero;"/>
        <path d="M1171.36,736.582C1167.8,740.816 1163.77,742.933 1159.29,742.933C1154.31,742.933 1150.38,739.612 1147.49,732.969C1144.61,726.326 1143.16,715.631 1143.16,700.885L1143.16,659.932L1135.42,659.932L1135.42,632.557L1143.16,632.557L1143.16,605.62L1157.54,601.897L1157.54,632.557L1168.87,632.557L1168.87,659.932L1157.54,659.932L1157.54,700.885C1157.54,705.265 1158,708.514 1158.92,710.631C1159.84,712.748 1161.1,713.806 1162.7,713.806C1164.48,713.806 1166.23,712.784 1167.95,710.74L1171.36,736.582Z" style="fill:rgb(136,196,8);fill-rule:nonzero;"/>
        <path d="M1199.93,743.152C1194.89,743.152 1190.48,740.78 1186.7,736.035C1182.92,731.29 1180.02,724.683 1178,716.215C1175.97,707.747 1174.95,697.892 1174.95,686.65C1174.95,675.408 1175.97,665.553 1178,657.085C1180.02,648.617 1182.92,642.011 1186.7,637.266C1190.48,632.521 1194.89,630.148 1199.93,630.148C1204.96,630.148 1209.39,632.521 1213.19,637.266C1217,642.011 1219.92,648.617 1221.95,657.085C1223.98,665.553 1224.99,675.408 1224.99,686.65C1224.99,697.892 1223.98,707.747 1221.95,716.215C1219.92,724.683 1217,731.29 1213.19,736.035C1209.39,740.78 1204.96,743.152 1199.93,743.152ZM1199.93,714.025C1203.12,714.025 1205.7,711.47 1207.67,706.36C1209.63,701.25 1210.62,694.68 1210.62,686.65C1210.62,678.62 1209.63,672.05 1207.67,666.94C1205.7,661.83 1203.12,659.275 1199.93,659.275C1196.79,659.275 1194.24,661.83 1192.28,666.94C1190.31,672.05 1189.33,678.62 1189.33,686.65C1189.33,694.68 1190.31,701.25 1192.28,706.36C1194.24,711.47 1196.79,714.025 1199.93,714.025Z" style="fill:rgb(136,196,8);fill-rule:nonzero;"/>
        <path d="M1259.18,630.148C1261.27,630.148 1263.36,631.061 1265.44,632.886C1267.53,634.711 1269.34,637.375 1270.88,640.879L1264.8,666.064C1263.51,664.166 1262.31,662.779 1261.2,661.903C1260.1,661.027 1258.93,660.589 1257.7,660.589C1254.63,660.589 1252.2,662.925 1250.42,667.597C1248.64,672.269 1247.75,679.131 1247.75,688.183L1247.75,740.743L1233.28,740.743L1233.28,632.557L1245.91,632.557L1247.01,646.135C1249.96,635.477 1254.02,630.148 1259.18,630.148Z" style="fill:rgb(136,196,8);fill-rule:nonzero;"/>
        <path d="M1296.5,630.148C1301.47,630.148 1305.77,632.375 1309.4,636.828C1313.02,641.281 1315.8,647.559 1317.74,655.662C1319.67,663.765 1320.64,673.218 1320.64,684.022C1320.64,687.526 1320.49,691.833 1320.18,696.943L1286.73,696.943C1287.16,702.491 1288.42,706.981 1290.51,710.412C1292.6,713.843 1295.27,715.558 1298.52,715.558C1300.8,715.558 1303.01,714.755 1305.16,713.149C1307.31,711.543 1309.15,709.28 1310.69,706.36L1318.24,725.632C1315.66,731.326 1312.61,735.706 1309.08,738.772C1305.54,741.838 1301.78,743.371 1297.79,743.371C1292.5,743.371 1287.93,741.072 1284.06,736.473C1280.19,731.874 1277.21,725.34 1275.12,716.872C1273.03,708.404 1271.99,698.403 1271.99,686.869C1271.99,675.773 1273.02,665.918 1275.07,657.304C1277.13,648.69 1280,642.011 1283.69,637.266C1287.37,632.521 1291.64,630.148 1296.5,630.148ZM1296.96,657.304C1294.07,657.304 1291.72,659.056 1289.91,662.56C1288.1,666.064 1287.07,670.955 1286.82,677.233L1306.91,677.233C1306.73,670.955 1305.76,666.064 1304.01,662.56C1302.26,659.056 1299.91,657.304 1296.96,657.304Z" style="fill:rgb(136,196,8);fill-rule:nonzero;"/>
        <path d="M1347.82,632.557L1360.17,632.557L1360.17,660.151L1347.82,660.151L1347.82,740.743L1333.17,740.743L1333.17,660.151L1325.15,660.151L1325.15,632.557L1333.17,632.557L1333.17,626.863C1333.17,617.227 1334.05,609.197 1335.8,602.773C1337.55,596.349 1339.84,591.604 1342.66,588.538C1345.49,585.472 1348.53,583.939 1351.79,583.939C1356.88,583.939 1361.25,587.297 1364.87,594.013L1359.99,615.694C1358.88,614.088 1357.88,612.92 1356.99,612.19C1356.1,611.46 1355.1,611.095 1354,611.095C1352.09,611.095 1350.59,612.373 1349.48,614.928C1348.38,617.483 1347.82,621.461 1347.82,626.863L1347.82,632.557Z" style="fill:rgb(136,196,8);fill-rule:nonzero;"/>
        <path d="M1392.88,630.148C1394.97,630.148 1397.06,631.061 1399.15,632.886C1401.24,634.711 1403.05,637.375 1404.59,640.879L1398.51,666.064C1397.21,664.166 1396.02,662.779 1394.91,661.903C1393.81,661.027 1392.64,660.589 1391.41,660.589C1388.34,660.589 1385.91,662.925 1384.13,667.597C1382.35,672.269 1381.46,679.131 1381.46,688.183L1381.46,740.743L1366.99,740.743L1366.99,632.557L1379.61,632.557L1380.72,646.135C1383.67,635.477 1387.72,630.148 1392.88,630.148Z" style="fill:rgb(136,196,8);fill-rule:nonzero;"/>
        <path d="M1430.66,743.152C1425.63,743.152 1421.22,740.78 1417.44,736.035C1413.66,731.29 1410.76,724.683 1408.73,716.215C1406.71,707.747 1405.69,697.892 1405.69,686.65C1405.69,675.408 1406.71,665.553 1408.73,657.085C1410.76,648.617 1413.66,642.011 1417.44,637.266C1421.22,632.521 1425.63,630.148 1430.66,630.148C1435.7,630.148 1440.12,632.521 1443.93,637.266C1447.74,642.011 1450.66,648.617 1452.69,657.085C1454.71,665.553 1455.73,675.408 1455.73,686.65C1455.73,697.892 1454.71,707.747 1452.69,716.215C1450.66,724.683 1447.74,731.29 1443.93,736.035C1440.12,740.78 1435.7,743.152 1430.66,743.152ZM1430.66,714.025C1433.86,714.025 1436.44,711.47 1438.4,706.36C1440.37,701.25 1441.35,694.68 1441.35,686.65C1441.35,678.62 1440.37,672.05 1438.4,666.94C1436.44,661.83 1433.86,659.275 1430.66,659.275C1427.53,659.275 1424.98,661.83 1423.02,666.94C1421.05,672.05 1420.07,678.62 1420.07,686.65C1420.07,694.68 1421.05,701.25 1423.02,706.36C1424.98,711.47 1427.53,714.025 1430.66,714.025Z" style="fill:rgb(136,196,8);fill-rule:nonzero;"/>
        <path d="M1492.13,630.148C1497.78,630.148 1502.28,634.528 1505.63,643.288C1508.98,652.048 1510.65,664.166 1510.65,679.642L1510.65,740.743L1496.18,740.743L1496.18,681.613C1496.18,674.605 1495.44,669.13 1493.97,665.188C1492.5,661.246 1490.47,659.275 1487.89,659.275C1485.06,659.275 1482.79,661.538 1481.07,666.064C1479.35,670.59 1478.49,676.503 1478.49,683.803L1478.49,740.743L1464.02,740.743L1464.02,632.557L1476.55,632.557L1477.48,645.259C1479.26,640.441 1481.39,636.718 1483.88,634.09C1486.37,631.462 1489.12,630.148 1492.13,630.148Z" style="fill:rgb(136,196,8);fill-rule:nonzero;"/>
        <path d="M1553.31,736.582C1549.75,740.816 1545.73,742.933 1541.24,742.933C1536.27,742.933 1532.33,739.612 1529.45,732.969C1526.56,726.326 1525.12,715.631 1525.12,700.885L1525.12,659.932L1517.38,659.932L1517.38,632.557L1525.12,632.557L1525.12,605.62L1539.49,601.897L1539.49,632.557L1550.83,632.557L1550.83,659.932L1539.49,659.932L1539.49,700.885C1539.49,705.265 1539.95,708.514 1540.87,710.631C1541.8,712.748 1543.05,713.806 1544.65,713.806C1546.43,713.806 1548.18,712.784 1549.9,710.74L1553.31,736.582Z" style="fill:rgb(136,196,8);fill-rule:nonzero;"/>
    </g>
    <g transform="matrix(1.27353,0,0,1.38731,-346.094,-757.504)">
        <ellipse cx="1375.59" cy="671.612" rx="17.598" ry="16.155" style="fill:rgb(1,137,251);stroke:rgb(1,137,251);stroke-width:0.75px;"/>
    </g>
    <g transform="matrix(1.0818,0,0,1.01357,-131.397,-214.513)">
        <path d="M144.636,566.643C144.636,566.643 127.783,582.493 140.498,582.51C153.212,582.527 198.601,582.528 198.601,582.528C198.601,582.528 221.803,583.73 243.67,561.551C265.537,539.373 385.654,417.403 385.654,417.403L296.701,417.472C296.701,417.472 289.627,416.828 278.674,428.269C267.72,439.709 144.636,566.643 144.636,566.643Z" style="fill:url(#_Linear1);"/>
    </g>
    <g transform="matrix(1.18227,0,0,1.13461,-158.823,-288.464)">
        <path d="M216.352,631.274L323.687,522.629C323.687,522.629 338.186,504.725 367.012,504.689C395.839,504.652 427.741,504.313 427.741,504.313L346.734,587.436C346.734,587.436 306.401,631.324 258.619,631.479C210.837,631.634 216.352,631.274 216.352,631.274Z" style="fill:url(#_Linear2);"/>
    </g>
    <g transform="matrix(0.874271,0,0,0.909136,-78.808,-171.056)">
        <path d="M335.802,340.546L281.937,395.659C281.937,395.659 272.314,393.056 267.586,389.384C262.859,385.711 258.103,381.132 257.688,380.369C257.274,379.606 254.776,376.424 254.643,373.314C254.51,370.204 254.71,364.945 254.71,364.945C254.71,364.945 258.514,341.303 295.668,340.705C332.823,340.107 335.802,340.546 335.802,340.546Z" style="fill:rgb(1,12,89);"/>
    </g>
    <g transform="matrix(1.18227,0,0,0.909136,-157.167,-170.037)">
        <path d="M254.575,364.615L254.619,267.455C254.619,267.455 256.144,248.624 274.386,248.559C292.627,248.493 476.494,248.466 476.494,248.466C476.494,248.466 492.078,248.784 502.019,254.283C511.959,259.781 516.698,261.964 522.154,268.305C527.609,274.646 533.736,281.334 536.593,293.653C539.45,305.972 540.293,314.449 540.246,320.516C540.199,326.584 540.258,329.722 537.975,342.279C535.692,354.836 532.283,360.334 529.578,365.977C526.872,371.621 521.989,380.497 514.481,388.817C506.973,397.137 506.238,396.896 504.747,398.133C503.256,399.369 507.517,394.709 507.427,394.01C507.336,393.31 511.595,388.55 511.626,380.1C511.657,371.65 511.766,369.326 511.487,367.143C511.208,364.96 507.78,356.08 503.95,352.595C500.12,349.11 496.576,345.353 494.729,344.336C492.881,343.318 487.755,340.569 487.755,340.569L483.188,339.074L479.601,338.241L476.743,338.204L295.743,340.186C295.743,340.186 258.815,341.732 254.575,364.615Z" style="fill:url(#_Linear3);"/>
    </g>
    <g transform="matrix(1.18227,0,0,0.909136,-160.266,-170.297)">
        <path d="M330.673,515.532L401.702,442.623C401.702,442.623 430.29,415.697 461.101,415.689C491.913,415.682 511.756,392.623 516.723,386.465C521.69,380.308 541.808,355.076 540.758,317.627C539.708,280.179 519.549,264.615 517.781,263.091C516.013,261.566 502.507,253.948 502.432,253.734C502.358,253.521 486.874,249.406 486.734,249.406C486.594,249.406 510.653,252.624 510.914,252.693C511.174,252.763 525.494,256.573 540.457,266.515C555.42,276.457 569.988,292.601 579.976,317.641C589.964,342.681 587.428,379.218 587.733,380.878C588.038,382.539 583.853,416.767 565.718,443.102C547.584,469.436 527.308,482.422 511.747,490.704C496.186,498.986 472.846,503.391 459.036,503.376C445.226,503.361 370.371,503.424 370.371,503.424C370.371,503.424 343.716,503.048 330.673,515.532Z" style="fill:url(#_Linear4);"/>
    </g>
    <g transform="matrix(1.20977,0,0,1.124,-101.089,-78.9669)">
        <path d="M283.426,197.999L319.799,240.605L247.054,240.605L283.426,197.999Z" style="fill:rgb(0,30,122);"/>
    </g>
    <defs>
        <linearGradient id="_Linear1" x1="0" y1="0" x2="1" y2="-0.00472263" gradientUnits="userSpaceOnUse" gradientTransform="matrix(249.903,-165.137,155.537,265.328,135.751,582.54)"><stop offset="0" style="stop-color:rgb(157,214,0);stop-opacity:1"/><stop offset="1" style="stop-color:rgb(16,91,60);stop-opacity:1"/></linearGradient>
        <linearGradient id="_Linear2" x1="0" y1="0" x2="1" y2="-0.00457018" gradientUnits="userSpaceOnUse" gradientTransform="matrix(211.584,-127.205,122.72,219.316,216.158,631.518)"><stop offset="0" style="stop-color:rgb(0,168,70);stop-opacity:1"/><stop offset="1" style="stop-color:rgb(6,36,60);stop-opacity:1"/></linearGradient>
        <linearGradient id="_Linear3" x1="0" y1="0" x2="1" y2="-2.60548e-05" gradientUnits="userSpaceOnUse" gradientTransform="matrix(285.699,-0.912037,0.705027,369.586,254.55,305.247)"><stop offset="0" style="stop-color:rgb(3,54,155);stop-opacity:1"/><stop offset="0.41" style="stop-color:rgb(0,120,224);stop-opacity:1"/><stop offset="0.6" style="stop-color:rgb(0,71,179);stop-opacity:1"/><stop offset="1" style="stop-color:rgb(8,24,84);stop-opacity:1"/></linearGradient>
        <linearGradient id="_Linear4" x1="0" y1="0" x2="1" y2="-0.00396811" gradientUnits="userSpaceOnUse" gradientTransform="matrix(355.568,-208.905,161.489,459.97,242.317,576.095)"><stop offset="0" style="stop-color:rgb(4,12,73);stop-opacity:1"/><stop offset="0.39" style="stop-color:rgb(3,42,114);stop-opacity:1"/><stop offset="0.78" style="stop-color:rgb(0,136,240);stop-opacity:1"/><stop offset="1" style="stop-color:rgb(101,239,251);stop-opacity:1"/></linearGradient>
    </defs>
</svg>
