<?xml version="1.0" encoding="UTF-8" standalone="no"?>
<!DOCTYPE svg PUBLIC "-//W3C//DTD SVG 1.1//EN" "http://www.w3.org/Graphics/SVG/1.1/DTD/svg11.dtd">
<svg width="100%" height="100%" viewBox="0 0 3100 1000" version="1.1" xmlns="http://www.w3.org/2000/svg" xmlns:xlink="http://www.w3.org/1999/xlink" xml:space="preserve" xmlns:serif="http://www.serif.com/" style="fill-rule:evenodd;clip-rule:evenodd;stroke-linecap:round;stroke-linejoin:round;stroke-miterlimit:1.5;">
    <g transform="matrix(1.99653,0,0,1.8681,-195.211,-357.718)">
        <path d="M144.636,566.643C144.636,566.643 127.783,582.493 140.498,582.51C153.212,582.527 198.601,582.528 198.601,582.528C198.601,582.528 221.803,583.73 243.67,561.551C265.537,539.373 385.654,417.403 385.654,417.403L296.701,417.472C296.701,417.472 289.627,416.828 278.674,428.269C267.72,439.709 144.636,566.643 144.636,566.643Z" style="fill:url(#_Linear1);"/>
    </g>
    <g transform="matrix(2.18195,0,0,2.09118,-245.827,-494.018)">
        <path d="M216.352,631.274L323.687,522.629C323.687,522.629 338.186,504.725 367.012,504.689C395.839,504.652 427.741,504.313 427.741,504.313L346.734,587.436C346.734,587.436 306.401,631.324 258.619,631.479C210.837,631.634 216.352,631.274 216.352,631.274Z" style="fill:url(#_Linear2);"/>
    </g>
    <g transform="matrix(1.61352,0,0,1.67561,-98.1546,-277.625)">
        <path d="M335.802,340.546L281.937,395.659C281.937,395.659 272.314,393.056 267.586,389.384C262.859,385.711 258.103,381.132 257.688,380.369C257.274,379.606 254.776,376.424 254.643,373.314C254.51,370.204 254.71,364.945 254.71,364.945C254.71,364.945 258.514,341.303 295.668,340.705C332.823,340.107 335.802,340.546 335.802,340.546Z" style="fill:rgb(1,12,89);"/>
    </g>
    <g transform="matrix(2.18195,0,0,1.67561,-242.771,-275.745)">
        <path d="M254.575,364.615L254.619,267.455C254.619,267.455 256.144,248.624 274.386,248.559C292.627,248.493 476.494,248.466 476.494,248.466C476.494,248.466 492.078,248.784 502.019,254.283C511.959,259.781 516.698,261.964 522.154,268.305C527.609,274.646 533.736,281.334 536.593,293.653C539.45,305.972 540.293,314.449 540.246,320.516C540.199,326.584 540.258,329.722 537.975,342.279C535.692,354.836 532.283,360.334 529.578,365.977C526.872,371.621 521.989,380.497 514.481,388.817C506.973,397.137 506.238,396.896 504.747,398.133C503.256,399.369 507.517,394.709 507.427,394.01C507.336,393.31 511.595,388.55 511.626,380.1C511.657,371.65 511.766,369.326 511.487,367.143C511.208,364.96 507.78,356.08 503.95,352.595C500.12,349.11 496.576,345.353 494.729,344.336C492.881,343.318 487.755,340.569 487.755,340.569L483.188,339.074L479.601,338.241L476.743,338.204L295.743,340.186C295.743,340.186 258.815,341.732 254.575,364.615Z" style="fill:url(#_Linear3);"/>
    </g>
    <g transform="matrix(2.18195,0,0,1.67561,-248.491,-276.225)">
        <path d="M330.673,515.532L401.702,442.623C401.702,442.623 430.29,415.697 461.101,415.689C491.913,415.682 511.756,392.623 516.723,386.465C521.69,380.308 541.808,355.076 540.758,317.627C539.708,280.179 519.549,264.615 517.781,263.091C516.013,261.566 502.507,253.948 502.432,253.734C502.358,253.521 486.874,249.406 486.734,249.406C486.594,249.406 510.653,252.624 510.914,252.693C511.174,252.763 525.494,256.573 540.457,266.515C555.42,276.457 569.988,292.601 579.976,317.641C589.964,342.681 587.428,379.218 587.733,380.878C588.038,382.539 583.853,416.767 565.718,443.102C547.584,469.436 527.308,482.422 511.747,490.704C496.186,498.986 472.846,503.391 459.036,503.376C445.226,503.361 370.371,503.424 370.371,503.424C370.371,503.424 343.716,503.048 330.673,515.532Z" style="fill:url(#_Linear4);"/>
    </g>
    <g transform="matrix(2.23271,0,0,2.07163,-139.275,-107.897)">
        <path d="M283.426,197.999L319.799,240.605L247.054,240.605L283.426,197.999Z" style="fill:rgb(0,30,122);"/>
    </g>
    <g transform="matrix(2.106,0,0,2.08534,-251.055,-895.394)">
        <path d="M738.769,587.443C750.479,587.443 760.707,589.67 769.454,594.123C778.2,598.576 784.959,604.963 789.729,613.285C794.5,621.607 796.885,631.316 796.885,642.412C796.885,653.508 794.5,663.217 789.729,671.539C784.959,679.861 778.2,686.249 769.454,690.702C760.707,695.155 750.479,697.381 738.769,697.381L701.688,697.381L701.688,740.743L666.124,740.743L666.124,587.443L738.769,587.443ZM737.034,666.064C744.552,666.064 750.515,663.947 754.925,659.713C759.334,655.479 761.539,649.785 761.539,642.631C761.539,635.477 759.334,629.783 754.925,625.549C750.515,621.315 744.552,619.198 737.034,619.198L701.471,619.198L701.471,666.064L737.034,666.064Z" style="fill:rgb(4,25,92);fill-rule:nonzero;"/>
        <path d="M890.565,632.557L927.43,632.557L860.64,787.609L824.426,787.609L845.243,739.21L803.608,632.557L840.256,632.557L852.616,666.721L864.326,701.98L876.904,666.721L890.565,632.557Z" style="fill:rgb(4,25,92);fill-rule:nonzero;"/>
        <path d="M1071.2,630.148C1084.79,630.148 1095.49,634.163 1103.3,642.193C1111.1,650.223 1115.01,661.246 1115.01,675.262L1115.01,740.743L1080.96,740.743L1080.96,679.642C1080.96,673.218 1079.48,668.218 1076.52,664.641C1073.55,661.064 1069.4,659.275 1064.05,659.275C1058.12,659.275 1053.42,661.319 1049.95,665.407C1046.48,669.495 1044.75,674.897 1044.75,681.613L1044.75,740.743L1010.92,740.743L1010.92,679.642C1010.92,673.218 1009.47,668.218 1006.58,664.641C1003.69,661.064 999.569,659.275 994.22,659.275C988.293,659.275 983.558,661.319 980.017,665.407C976.475,669.495 974.704,674.897 974.704,681.613L974.704,740.743L940.658,740.743L940.658,632.557L970.15,632.557L972.101,644.602C975.86,639.93 980.378,636.353 985.655,633.871C990.931,631.389 996.606,630.148 1002.68,630.148C1009.62,630.148 1015.83,631.645 1021.33,634.638C1026.82,637.631 1031.16,641.755 1034.34,647.011C1043.01,635.769 1055.3,630.148 1071.2,630.148Z" style="fill:rgb(4,25,92);fill-rule:nonzero;"/>
        <path d="M1190.9,630.148C1202.62,630.148 1212.73,632.375 1221.26,636.828C1229.79,641.281 1236.34,647.559 1240.89,655.662C1245.44,663.765 1247.72,673.218 1247.72,684.022C1247.72,687.526 1247.36,691.833 1246.64,696.943L1167.92,696.943C1168.93,702.491 1171.89,706.981 1176.81,710.412C1181.73,713.843 1188.01,715.558 1195.67,715.558C1201.02,715.558 1206.23,714.755 1211.29,713.149C1216.35,711.543 1220.69,709.28 1224.3,706.36L1242.08,725.632C1236.01,731.326 1228.82,735.706 1220.51,738.772C1212.19,741.838 1203.34,743.371 1193.94,743.371C1181.51,743.371 1170.74,741.072 1161.63,736.473C1152.52,731.874 1145.51,725.34 1140.6,716.872C1135.68,708.404 1133.22,698.403 1133.22,686.869C1133.22,675.773 1135.64,665.918 1140.49,657.304C1145.33,648.69 1152.09,642.011 1160.76,637.266C1169.44,632.521 1179.48,630.148 1190.9,630.148ZM1191.99,657.304C1185.19,657.304 1179.66,659.056 1175.4,662.56C1171.13,666.064 1168.71,670.955 1168.13,677.233L1215.41,677.233C1214.98,670.955 1212.7,666.064 1208.58,662.56C1204.46,659.056 1198.93,657.304 1191.99,657.304Z" style="fill:rgb(4,25,92);fill-rule:nonzero;"/>
        <path d="M1327.52,630.148C1332.44,630.148 1337.35,631.061 1342.27,632.886C1347.18,634.711 1351.45,637.375 1355.06,640.879L1340.75,666.064C1337.71,664.166 1334.89,662.779 1332.29,661.903C1329.69,661.027 1326.94,660.589 1324.05,660.589C1316.82,660.589 1311.11,662.925 1306.92,667.597C1302.73,672.269 1300.63,679.131 1300.63,688.183L1300.63,740.743L1266.59,740.743L1266.59,632.557L1296.3,632.557L1298.9,646.135C1305.84,635.477 1315.38,630.148 1327.52,630.148Z" style="fill:rgb(4,25,92);fill-rule:nonzero;"/>
        <path d="M1383.69,621.826C1377.76,621.826 1372.95,620.074 1369.27,616.57C1365.58,613.066 1363.74,608.613 1363.74,603.211C1363.74,597.663 1365.62,593.137 1369.37,589.633C1373.13,586.129 1377.9,584.377 1383.69,584.377C1389.47,584.377 1394.24,586.129 1398,589.633C1401.76,593.137 1403.64,597.663 1403.64,603.211C1403.64,608.613 1401.79,613.066 1398.11,616.57C1394.42,620.074 1389.61,621.826 1383.69,621.826ZM1366.55,632.557L1400.6,632.557L1400.6,740.743L1366.55,740.743L1366.55,632.557Z" style="fill:rgb(4,25,92);fill-rule:nonzero;"/>
        <path d="M1538.52,632.557L1538.52,787.609L1504.47,787.609L1504.47,730.231C1495.65,738.699 1484.59,742.933 1471.29,742.933C1461.32,742.933 1452.43,740.561 1444.62,735.816C1436.81,731.071 1430.74,724.428 1426.4,715.887C1422.07,707.346 1419.9,697.6 1419.9,686.65C1419.9,675.7 1422.07,665.955 1426.4,657.414C1430.74,648.873 1436.81,642.23 1444.62,637.485C1452.43,632.74 1461.32,630.367 1471.29,630.367C1486.04,630.367 1497.89,635.331 1506.86,645.259L1509.03,632.557L1538.52,632.557ZM1479.32,714.025C1486.84,714.025 1492.94,711.47 1497.64,706.36C1502.34,701.25 1504.69,694.68 1504.69,686.65C1504.69,678.62 1502.34,672.05 1497.64,666.94C1492.94,661.83 1486.84,659.275 1479.32,659.275C1471.8,659.275 1465.66,661.794 1460.88,666.831C1456.11,671.868 1453.73,678.474 1453.73,686.65C1453.73,694.826 1456.11,701.433 1460.88,706.47C1465.66,711.507 1471.8,714.025 1479.32,714.025Z" style="fill:rgb(4,25,92);fill-rule:nonzero;"/>
    </g>
    <g transform="matrix(2.36991,0,0,2.58164,-596.991,-1371.87)">
        <ellipse cx="1375.59" cy="671.612" rx="17.598" ry="16.155" style="fill:rgb(1,137,251);stroke:rgb(1,137,251);stroke-width:0.4px;"/>
    </g>
    <defs>
        <linearGradient id="_Linear1" x1="0" y1="0" x2="1" y2="-0.00593697" gradientUnits="userSpaceOnUse" gradientTransform="matrix(249.903,-165.137,155.537,265.328,135.751,582.54)"><stop offset="0" style="stop-color:rgb(157,214,0);stop-opacity:1"/><stop offset="1" style="stop-color:rgb(16,91,60);stop-opacity:1"/></linearGradient>
        <linearGradient id="_Linear2" x1="0" y1="0" x2="1" y2="-0.00574575" gradientUnits="userSpaceOnUse" gradientTransform="matrix(211.584,-127.205,122.72,219.316,216.158,631.518)"><stop offset="0" style="stop-color:rgb(0,168,70);stop-opacity:1"/><stop offset="1" style="stop-color:rgb(6,36,60);stop-opacity:1"/></linearGradient>
        <linearGradient id="_Linear3" x1="0" y1="0" x2="1" y2="-3.27791e-05" gradientUnits="userSpaceOnUse" gradientTransform="matrix(285.699,-0.912037,0.705027,369.586,254.55,305.247)"><stop offset="0" style="stop-color:rgb(3,54,155);stop-opacity:1"/><stop offset="0.41" style="stop-color:rgb(0,120,224);stop-opacity:1"/><stop offset="0.6" style="stop-color:rgb(0,71,179);stop-opacity:1"/><stop offset="1" style="stop-color:rgb(8,24,84);stop-opacity:1"/></linearGradient>
        <linearGradient id="_Linear4" x1="0" y1="0" x2="1" y2="-0.0049899" gradientUnits="userSpaceOnUse" gradientTransform="matrix(355.568,-208.905,161.489,459.97,242.317,576.095)"><stop offset="0" style="stop-color:rgb(4,12,73);stop-opacity:1"/><stop offset="0.39" style="stop-color:rgb(3,42,114);stop-opacity:1"/><stop offset="0.78" style="stop-color:rgb(0,136,240);stop-opacity:1"/><stop offset="1" style="stop-color:rgb(101,239,251);stop-opacity:1"/></linearGradient>
    </defs>
</svg>
