<?xml version="1.0" encoding="UTF-8" standalone="no"?>
<!DOCTYPE svg PUBLIC "-//W3C//DTD SVG 1.1//EN" "http://www.w3.org/Graphics/SVG/1.1/DTD/svg11.dtd">
<svg width="100%" height="100%" viewBox="0 0 3000 500" version="1.1" xmlns="http://www.w3.org/2000/svg" xmlns:xlink="http://www.w3.org/1999/xlink" xml:space="preserve" xmlns:serif="http://www.serif.com/" style="fill-rule:evenodd;clip-rule:evenodd;stroke-linecap:round;stroke-linejoin:round;stroke-miterlimit:1.5;">
    <g transform="matrix(2.55468,0,0,1.34459,-973.005,-649.723)">
        <path d="M697.017,616.773C703.242,616.773 708.678,619 713.327,623.453C717.976,627.906 721.569,634.293 724.104,642.615C726.64,650.937 727.908,660.646 727.908,671.742C727.908,682.838 726.64,692.547 724.104,700.869C721.569,709.191 717.976,715.579 713.327,720.032C708.678,724.485 703.242,726.711 697.017,726.711L677.307,726.711L677.307,770.073L658.403,770.073L658.403,616.773L697.017,616.773ZM696.095,695.394C700.091,695.394 703.261,693.277 705.604,689.043C707.948,684.809 709.12,679.115 709.12,671.961C709.12,664.807 707.948,659.113 705.604,654.879C703.261,650.645 700.091,648.528 696.095,648.528L677.192,648.528L677.192,695.394L696.095,695.394Z" style="fill:rgb(4,25,92);fill-rule:nonzero;"/>
        <path d="M777.703,661.887L797.298,661.887L761.796,816.939L742.547,816.939L753.612,768.54L731.481,661.887L750.961,661.887L757.531,696.051L763.756,731.31L770.441,696.051L777.703,661.887Z" style="fill:rgb(4,25,92);fill-rule:nonzero;"/>
        <path d="M873.718,659.478C880.942,659.478 886.628,663.493 890.778,671.523C894.927,679.553 897.002,690.576 897.002,704.592L897.002,770.073L878.905,770.073L878.905,708.972C878.905,702.548 878.118,697.548 876.542,693.971C874.967,690.394 872.758,688.605 869.915,688.605C866.764,688.605 864.267,690.649 862.422,694.737C860.578,698.825 859.656,704.227 859.656,710.943L859.656,770.073L841.675,770.073L841.675,708.972C841.675,702.548 840.906,697.548 839.369,693.971C837.833,690.394 835.643,688.605 832.799,688.605C829.649,688.605 827.132,690.649 825.25,694.737C823.367,698.825 822.426,704.227 822.426,710.943L822.426,770.073L804.329,770.073L804.329,661.887L820.005,661.887L821.042,673.932C823.04,669.26 825.442,665.683 828.246,663.201C831.051,660.719 834.067,659.478 837.295,659.478C840.983,659.478 844.287,660.975 847.208,663.968C850.128,666.961 852.433,671.085 854.123,676.341C858.734,665.099 865.266,659.478 873.718,659.478Z" style="fill:rgb(4,25,92);fill-rule:nonzero;"/>
        <path d="M937.345,659.478C943.569,659.478 948.948,661.705 953.482,666.158C958.016,670.611 961.493,676.889 963.913,684.992C966.334,693.095 967.544,702.548 967.544,713.352C967.544,716.856 967.352,721.163 966.968,726.273L925.127,726.273C925.665,731.821 927.24,736.311 929.853,739.742C932.465,743.173 935.808,744.888 939.881,744.888C942.724,744.888 945.49,744.085 948.18,742.479C950.869,740.873 953.174,738.61 955.096,735.69L964.547,754.962C961.32,760.656 957.497,765.036 953.078,768.102C948.66,771.168 943.953,772.701 938.958,772.701C932.35,772.701 926.625,770.402 921.784,765.803C916.943,761.204 913.216,754.67 910.603,746.202C907.991,737.734 906.684,727.733 906.684,716.199C906.684,705.103 907.971,695.248 910.546,686.634C913.12,678.02 916.712,671.341 921.323,666.596C925.934,661.851 931.274,659.478 937.345,659.478ZM937.921,686.634C934.309,686.634 931.37,688.386 929.103,691.89C926.836,695.394 925.549,700.285 925.242,706.563L950.37,706.563C950.139,700.285 948.929,695.394 946.739,691.89C944.549,688.386 941.61,686.634 937.921,686.634Z" style="fill:rgb(4,25,92);fill-rule:nonzero;"/>
        <path d="M1009.96,659.478C1012.57,659.478 1015.19,660.391 1017.8,662.216C1020.41,664.041 1022.68,666.705 1024.6,670.209L1016.99,695.394C1015.38,693.496 1013.88,692.109 1012.5,691.233C1011.11,690.357 1009.65,689.919 1008.12,689.919C1004.27,689.919 1001.24,692.255 999.012,696.927C996.783,701.599 995.669,708.461 995.669,717.513L995.669,770.073L977.572,770.073L977.572,661.887L993.364,661.887L994.747,675.465C998.435,664.807 1003.51,659.478 1009.96,659.478Z" style="fill:rgb(4,25,92);fill-rule:nonzero;"/>
        <path d="M1039.82,651.156C1036.66,651.156 1034.11,649.404 1032.15,645.9C1030.19,642.396 1029.21,637.943 1029.21,632.541C1029.21,626.993 1030.21,622.467 1032.21,618.963C1034.21,615.459 1036.74,613.707 1039.82,613.707C1042.89,613.707 1045.42,615.459 1047.42,618.963C1049.42,622.467 1050.42,626.993 1050.42,632.541C1050.42,637.943 1049.44,642.396 1047.48,645.9C1045.52,649.404 1042.97,651.156 1039.82,651.156ZM1030.71,661.887L1048.81,661.887L1048.81,770.073L1030.71,770.073L1030.71,661.887Z" style="fill:rgb(4,25,92);fill-rule:nonzero;"/>
        <path d="M1122.12,661.887L1122.12,816.939L1104.02,816.939L1104.02,759.561C1099.33,768.029 1093.45,772.263 1086.38,772.263C1081.08,772.263 1076.35,769.891 1072.2,765.146C1068.06,760.401 1064.83,753.758 1062.52,745.217C1060.22,736.676 1059.07,726.93 1059.07,715.98C1059.07,705.03 1060.22,695.285 1062.52,686.744C1064.83,678.203 1068.06,671.56 1072.2,666.815C1076.35,662.07 1081.08,659.697 1086.38,659.697C1094.22,659.697 1100.52,664.661 1105.29,674.589L1106.44,661.887L1122.12,661.887ZM1090.65,743.355C1094.64,743.355 1097.89,740.8 1100.39,735.69C1102.88,730.58 1104.13,724.01 1104.13,715.98C1104.13,707.95 1102.88,701.38 1100.39,696.27C1097.89,691.16 1094.64,688.605 1090.65,688.605C1086.65,688.605 1083.39,691.124 1080.85,696.161C1078.31,701.198 1077.05,707.804 1077.05,715.98C1077.05,724.156 1078.31,730.763 1080.85,735.8C1083.39,740.837 1086.65,743.355 1090.65,743.355Z" style="fill:rgb(4,25,92);fill-rule:nonzero;"/>
        <path d="M1248.84,770.073L1205.92,770.073L1205.92,753.767L1197.34,753.767L1197.34,607.011L1205.92,607.011L1205.92,590.705L1248.84,590.705L1248.84,607.011L1257.42,607.011L1257.42,639.623L1240.26,639.623L1240.26,623.317L1214.51,623.317L1214.51,737.461L1240.26,737.461L1240.26,721.155L1257.42,721.155L1257.42,753.767L1248.84,753.767L1248.84,770.073Z" style="fill:rgb(136,196,8);fill-rule:nonzero;"/>
        <path d="M1317.5,770.073L1283.17,770.073L1283.17,753.767L1274.58,753.767L1274.58,655.93L1283.17,655.93L1283.17,639.623L1317.5,639.623L1317.5,655.93L1326.08,655.93L1326.08,753.767L1317.5,753.767L1317.5,770.073ZM1291.75,737.461L1308.91,737.461L1308.91,672.236L1291.75,672.236L1291.75,737.461Z" style="fill:rgb(136,196,8);fill-rule:nonzero;"/>
        <path d="M1403.32,770.073L1386.15,770.073L1386.15,753.767L1377.57,753.767L1377.57,770.073L1351.83,770.073L1351.83,753.767L1343.24,753.767L1343.24,655.93L1351.83,655.93L1351.83,639.623L1377.57,639.623L1377.57,655.93L1386.15,655.93L1386.15,590.705L1403.32,590.705L1403.32,770.073ZM1360.41,737.461L1377.57,737.461L1377.57,721.155L1386.15,721.155L1386.15,688.542L1377.57,688.542L1377.57,672.236L1360.41,672.236L1360.41,737.461Z" style="fill:rgb(136,196,8);fill-rule:nonzero;"/>
        <path d="M1463.4,770.073L1429.07,770.073L1429.07,753.767L1420.49,753.767L1420.49,655.93L1429.07,655.93L1429.07,639.623L1463.4,639.623L1463.4,655.93L1471.98,655.93L1471.98,704.848L1437.65,704.848L1437.65,737.461L1454.81,737.461L1454.81,721.155L1471.98,721.155L1471.98,753.767L1463.4,753.767L1463.4,770.073ZM1437.65,688.542L1454.81,688.542L1454.81,672.236L1437.65,672.236L1437.65,688.542Z" style="fill:rgb(136,196,8);fill-rule:nonzero;"/>
        <path d="M1532.06,770.073L1489.14,770.073L1489.14,737.461L1523.47,737.461L1523.47,721.155L1497.73,721.155L1497.73,704.848L1489.14,704.848L1489.14,655.93L1497.73,655.93L1497.73,639.623L1540.64,639.623L1540.64,672.236L1506.31,672.236L1506.31,688.542L1532.06,688.542L1532.06,704.848L1540.64,704.848L1540.64,753.767L1532.06,753.767L1532.06,770.073Z" style="fill:rgb(136,196,8);fill-rule:nonzero;"/>
    </g>
    <g transform="matrix(1.52807,0,0,1.66459,-419.041,-917.029)">
        <ellipse cx="1375.59" cy="671.612" rx="17.598" ry="16.155" style="fill:rgb(1,137,251);stroke:rgb(1,137,251);stroke-width:0.63px;"/>
    </g>
    <g transform="matrix(1.28685,0,0,1.21737,-159.232,-306.47)">
        <path d="M144.636,566.643C144.636,566.643 127.783,582.493 140.498,582.51C153.212,582.527 198.601,582.528 198.601,582.528C198.601,582.528 221.803,583.73 243.67,561.551C265.537,539.373 385.654,417.403 385.654,417.403L296.701,417.472C296.701,417.472 289.627,416.828 278.674,428.269C267.72,439.709 144.636,566.643 144.636,566.643Z" style="fill:url(#_Linear1);"/>
    </g>
    <g transform="matrix(1.40636,0,0,1.36275,-191.856,-395.291)">
        <path d="M216.352,631.274L323.687,522.629C323.687,522.629 338.186,504.725 367.012,504.689C395.839,504.652 427.741,504.313 427.741,504.313L346.734,587.436C346.734,587.436 306.401,631.324 258.619,631.479C210.837,631.634 216.352,631.274 216.352,631.274Z" style="fill:url(#_Linear2);"/>
    </g>
    <g transform="matrix(1.03998,0,0,1.09194,-96.6752,-254.276)">
        <path d="M335.802,340.546L281.937,395.659C281.937,395.659 272.314,393.056 267.586,389.384C262.859,385.711 258.103,381.132 257.688,380.369C257.274,379.606 254.776,376.424 254.643,373.314C254.51,370.204 254.71,364.945 254.71,364.945C254.71,364.945 258.514,341.303 295.668,340.705C332.823,340.107 335.802,340.546 335.802,340.546Z" style="fill:rgb(1,12,89);"/>
    </g>
    <g transform="matrix(1.40636,0,0,1.09194,-189.886,-253.051)">
        <path d="M254.575,364.615L254.619,267.455C254.619,267.455 256.144,248.624 274.386,248.559C292.627,248.493 476.494,248.466 476.494,248.466C476.494,248.466 492.078,248.784 502.019,254.283C511.959,259.781 516.698,261.964 522.154,268.305C527.609,274.646 533.736,281.334 536.593,293.653C539.45,305.972 540.293,314.449 540.246,320.516C540.199,326.584 540.258,329.722 537.975,342.279C535.692,354.836 532.283,360.334 529.578,365.977C526.872,371.621 521.989,380.497 514.481,388.817C506.973,397.137 506.238,396.896 504.747,398.133C503.256,399.369 507.517,394.709 507.427,394.01C507.336,393.31 511.595,388.55 511.626,380.1C511.657,371.65 511.766,369.326 511.487,367.143C511.208,364.96 507.78,356.08 503.95,352.595C500.12,349.11 496.576,345.353 494.729,344.336C492.881,343.318 487.755,340.569 487.755,340.569L483.188,339.074L479.601,338.241L476.743,338.204L295.743,340.186C295.743,340.186 258.815,341.732 254.575,364.615Z" style="fill:url(#_Linear3);"/>
    </g>
    <g transform="matrix(1.40636,0,0,1.09194,-193.573,-253.364)">
        <path d="M330.673,515.532L401.702,442.623C401.702,442.623 430.29,415.697 461.101,415.689C491.913,415.682 511.756,392.623 516.723,386.465C521.69,380.308 541.808,355.076 540.758,317.627C539.708,280.179 519.549,264.615 517.781,263.091C516.013,261.566 502.507,253.948 502.432,253.734C502.358,253.521 486.874,249.406 486.734,249.406C486.594,249.406 510.653,252.624 510.914,252.693C511.174,252.763 525.494,256.573 540.457,266.515C555.42,276.457 569.988,292.601 579.976,317.641C589.964,342.681 587.428,379.218 587.733,380.878C588.038,382.539 583.853,416.767 565.718,443.102C547.584,469.436 527.308,482.422 511.747,490.704C496.186,498.986 472.846,503.391 459.036,503.376C445.226,503.361 370.371,503.424 370.371,503.424C370.371,503.424 343.716,503.048 330.673,515.532Z" style="fill:url(#_Linear4);"/>
    </g>
    <g transform="matrix(1.43907,0,0,1.35001,-123.179,-143.67)">
        <path d="M283.426,197.999L319.799,240.605L247.054,240.605L283.426,197.999Z" style="fill:rgb(0,30,122);"/>
    </g>
    <defs>
        <linearGradient id="_Linear1" x1="0" y1="0" x2="1" y2="0.00393489" gradientUnits="userSpaceOnUse" gradientTransform="matrix(249.903,-165.137,155.537,265.328,135.751,582.54)"><stop offset="0" style="stop-color:rgb(157,214,0);stop-opacity:1"/><stop offset="1" style="stop-color:rgb(16,91,60);stop-opacity:1"/></linearGradient>
        <linearGradient id="_Linear2" x1="0" y1="0" x2="1" y2="0.00380584" gradientUnits="userSpaceOnUse" gradientTransform="matrix(211.584,-127.205,122.72,219.316,216.158,631.518)"><stop offset="0" style="stop-color:rgb(0,168,70);stop-opacity:1"/><stop offset="1" style="stop-color:rgb(6,36,60);stop-opacity:1"/></linearGradient>
        <linearGradient id="_Linear3" x1="0" y1="0" x2="1" y2="2.15921e-05" gradientUnits="userSpaceOnUse" gradientTransform="matrix(285.699,-0.912037,0.705027,369.586,254.55,305.247)"><stop offset="0" style="stop-color:rgb(3,54,155);stop-opacity:1"/><stop offset="0.41" style="stop-color:rgb(0,120,224);stop-opacity:1"/><stop offset="0.6" style="stop-color:rgb(0,71,179);stop-opacity:1"/><stop offset="1" style="stop-color:rgb(8,24,84);stop-opacity:1"/></linearGradient>
        <linearGradient id="_Linear4" x1="0" y1="0" x2="1" y2="0.00329932" gradientUnits="userSpaceOnUse" gradientTransform="matrix(355.568,-208.905,161.489,459.97,242.317,576.095)"><stop offset="0" style="stop-color:rgb(4,12,73);stop-opacity:1"/><stop offset="0.39" style="stop-color:rgb(3,42,114);stop-opacity:1"/><stop offset="0.78" style="stop-color:rgb(0,136,240);stop-opacity:1"/><stop offset="1" style="stop-color:rgb(101,239,251);stop-opacity:1"/></linearGradient>
    </defs>
</svg>
