<?xml version="1.0" encoding="UTF-8" standalone="no"?>
<!DOCTYPE svg PUBLIC "-//W3C//DTD SVG 1.1//EN" "http://www.w3.org/Graphics/SVG/1.1/DTD/svg11.dtd">
<svg width="100%" height="100%" viewBox="0 0 1200 1000" version="1.1" xmlns="http://www.w3.org/2000/svg" xmlns:xlink="http://www.w3.org/1999/xlink" xml:space="preserve" xmlns:serif="http://www.serif.com/" style="fill-rule:evenodd;clip-rule:evenodd;stroke-linejoin:round;stroke-miterlimit:2;">
    <g transform="matrix(1.99653,0,0,1.8681,-150.164,-341.312)">
        <path d="M144.636,566.643C144.636,566.643 127.783,582.493 140.498,582.51C153.212,582.527 198.601,582.528 198.601,582.528C198.601,582.528 221.803,583.73 243.67,561.551C265.537,539.373 385.654,417.403 385.654,417.403L296.701,417.472C296.701,417.472 289.627,416.828 278.674,428.269C267.72,439.709 144.636,566.643 144.636,566.643Z" style="fill:url(#_Linear1);"/>
    </g>
    <g transform="matrix(2.18195,0,0,2.09118,-200.78,-477.611)">
        <path d="M216.352,631.274L323.687,522.629C323.687,522.629 338.186,504.725 367.012,504.689C395.839,504.652 427.741,504.313 427.741,504.313L346.734,587.436C346.734,587.436 306.401,631.324 258.619,631.479C210.837,631.634 216.352,631.274 216.352,631.274Z" style="fill:url(#_Linear2);"/>
    </g>
    <g transform="matrix(1.61352,0,0,1.67561,-53.1071,-261.218)">
        <path d="M335.802,340.546L281.937,395.659C281.937,395.659 272.314,393.056 267.586,389.384C262.859,385.711 258.103,381.132 257.688,380.369C257.274,379.606 254.776,376.424 254.643,373.314C254.51,370.204 254.71,364.945 254.71,364.945C254.71,364.945 258.514,341.303 295.668,340.705C332.823,340.107 335.802,340.546 335.802,340.546Z" style="fill:rgb(1,12,89);"/>
    </g>
    <g transform="matrix(2.18195,0,0,1.67561,-197.723,-259.339)">
        <path d="M254.575,364.615L254.619,267.455C254.619,267.455 256.144,248.624 274.386,248.559C292.627,248.493 476.494,248.466 476.494,248.466C476.494,248.466 492.078,248.784 502.019,254.283C511.959,259.781 516.698,261.964 522.154,268.305C527.609,274.646 533.736,281.334 536.593,293.653C539.45,305.972 540.293,314.449 540.246,320.516C540.199,326.584 540.258,329.722 537.975,342.279C535.692,354.836 532.283,360.334 529.578,365.977C526.872,371.621 521.989,380.497 514.481,388.817C506.973,397.137 506.238,396.896 504.747,398.133C503.256,399.369 507.517,394.709 507.427,394.01C507.336,393.31 511.595,388.55 511.626,380.1C511.657,371.65 511.766,369.326 511.487,367.143C511.208,364.96 507.78,356.08 503.95,352.595C500.12,349.11 496.576,345.353 494.729,344.336C492.881,343.318 487.755,340.569 487.755,340.569L483.188,339.074L479.601,338.241L476.743,338.204L295.743,340.186C295.743,340.186 258.815,341.732 254.575,364.615Z" style="fill:url(#_Linear3);"/>
    </g>
    <g transform="matrix(2.18195,0,0,1.67561,-203.443,-259.819)">
        <path d="M330.673,515.532L401.702,442.623C401.702,442.623 430.29,415.697 461.101,415.689C491.913,415.682 511.756,392.623 516.723,386.465C521.69,380.308 541.808,355.076 540.758,317.627C539.708,280.179 519.549,264.615 517.781,263.091C516.013,261.566 502.507,253.948 502.432,253.734C502.358,253.521 486.874,249.406 486.734,249.406C486.594,249.406 510.653,252.624 510.914,252.693C511.174,252.763 525.494,256.573 540.457,266.515C555.42,276.457 569.988,292.601 579.976,317.641C589.964,342.681 587.428,379.218 587.733,380.878C588.038,382.539 583.853,416.767 565.718,443.102C547.584,469.436 527.308,482.422 511.747,490.704C496.186,498.986 472.846,503.391 459.036,503.376C445.226,503.361 370.371,503.424 370.371,503.424C370.371,503.424 343.716,503.048 330.673,515.532Z" style="fill:url(#_Linear4);"/>
    </g>
    <g transform="matrix(2.23271,0,0,2.07163,-94.2278,-91.4903)">
        <path d="M283.426,197.999L319.799,240.605L247.054,240.605L283.426,197.999Z" style="fill:rgb(0,30,122);"/>
    </g>
    <defs>
        <linearGradient id="_Linear1" x1="0" y1="0" x2="1" y2="-0.00593697" gradientUnits="userSpaceOnUse" gradientTransform="matrix(249.903,-165.137,155.537,265.328,135.751,582.54)"><stop offset="0" style="stop-color:rgb(157,214,0);stop-opacity:1"/><stop offset="1" style="stop-color:rgb(16,91,60);stop-opacity:1"/></linearGradient>
        <linearGradient id="_Linear2" x1="0" y1="0" x2="1" y2="-0.00574575" gradientUnits="userSpaceOnUse" gradientTransform="matrix(211.584,-127.205,122.72,219.316,216.158,631.518)"><stop offset="0" style="stop-color:rgb(0,168,70);stop-opacity:1"/><stop offset="1" style="stop-color:rgb(6,36,60);stop-opacity:1"/></linearGradient>
        <linearGradient id="_Linear3" x1="0" y1="0" x2="1" y2="-3.27791e-05" gradientUnits="userSpaceOnUse" gradientTransform="matrix(285.699,-0.912037,0.705027,369.586,254.55,305.247)"><stop offset="0" style="stop-color:rgb(3,54,155);stop-opacity:1"/><stop offset="0.41" style="stop-color:rgb(0,120,224);stop-opacity:1"/><stop offset="0.6" style="stop-color:rgb(0,71,179);stop-opacity:1"/><stop offset="1" style="stop-color:rgb(8,24,84);stop-opacity:1"/></linearGradient>
        <linearGradient id="_Linear4" x1="0" y1="0" x2="1" y2="-0.0049899" gradientUnits="userSpaceOnUse" gradientTransform="matrix(355.568,-208.905,161.489,459.97,242.317,576.095)"><stop offset="0" style="stop-color:rgb(4,12,73);stop-opacity:1"/><stop offset="0.39" style="stop-color:rgb(3,42,114);stop-opacity:1"/><stop offset="0.78" style="stop-color:rgb(0,136,240);stop-opacity:1"/><stop offset="1" style="stop-color:rgb(101,239,251);stop-opacity:1"/></linearGradient>
    </defs>
</svg>
