<?xml version="1.0" encoding="UTF-8" standalone="no"?>
<!DOCTYPE svg PUBLIC "-//W3C//DTD SVG 1.1//EN" "http://www.w3.org/Graphics/SVG/1.1/DTD/svg11.dtd">
<svg width="100%" height="100%" viewBox="0 0 3000 500" version="1.1" xmlns="http://www.w3.org/2000/svg" xmlns:xlink="http://www.w3.org/1999/xlink" xml:space="preserve" xmlns:serif="http://www.serif.com/" style="fill-rule:evenodd;clip-rule:evenodd;stroke-linecap:round;stroke-linejoin:round;stroke-miterlimit:1.5;">
    <g transform="matrix(2.71568,0,0,1.0221,-1238.63,-433.934)">
        <path d="M683.52,587.443C687.971,587.443 691.859,589.67 695.183,594.123C698.508,598.576 701.077,604.963 702.89,613.285C704.703,621.607 705.61,631.316 705.61,642.412C705.61,653.508 704.703,663.217 702.89,671.539C701.077,679.861 698.508,686.249 695.183,690.702C691.859,695.155 687.971,697.381 683.52,697.381L669.425,697.381L669.425,740.743L655.908,740.743L655.908,587.443L683.52,587.443ZM682.861,666.064C685.718,666.064 687.985,663.947 689.661,659.713C691.337,655.479 692.175,649.785 692.175,642.631C692.175,635.477 691.337,629.783 689.661,625.549C687.985,621.315 685.718,619.198 682.861,619.198L669.343,619.198L669.343,666.064L682.861,666.064Z" style="fill:rgb(4,25,92);fill-rule:nonzero;"/>
        <path d="M741.218,632.557L755.23,632.557L729.843,787.609L716.078,787.609L723.991,739.21L708.165,632.557L722.095,632.557L726.793,666.721L731.244,701.98L736.025,666.721L741.218,632.557Z" style="fill:rgb(4,25,92);fill-rule:nonzero;"/>
        <path d="M809.878,630.148C815.043,630.148 819.11,634.163 822.077,642.193C825.044,650.223 826.528,661.246 826.528,675.262L826.528,740.743L813.587,740.743L813.587,679.642C813.587,673.218 813.024,668.218 811.897,664.641C810.771,661.064 809.191,659.275 807.158,659.275C804.905,659.275 803.119,661.319 801.8,665.407C800.481,669.495 799.822,674.897 799.822,681.613L799.822,740.743L786.964,740.743L786.964,679.642C786.964,673.218 786.414,668.218 785.315,664.641C784.216,661.064 782.65,659.275 780.617,659.275C778.364,659.275 776.564,661.319 775.218,665.407C773.872,669.495 773.199,674.897 773.199,681.613L773.199,740.743L760.258,740.743L760.258,632.557L771.468,632.557L772.21,644.602C773.638,639.93 775.355,636.353 777.361,633.871C779.367,631.389 781.524,630.148 783.832,630.148C786.469,630.148 788.832,631.645 790.92,634.638C793.008,637.631 794.657,641.755 795.866,647.011C799.163,635.769 803.833,630.148 809.878,630.148Z" style="fill:rgb(4,25,92);fill-rule:nonzero;"/>
        <path d="M855.377,630.148C859.828,630.148 863.674,632.375 866.916,636.828C870.158,641.281 872.645,647.559 874.376,655.662C876.107,663.765 876.972,673.218 876.972,684.022C876.972,687.526 876.835,691.833 876.56,696.943L846.64,696.943C847.024,702.491 848.151,706.981 850.019,710.412C851.887,713.843 854.278,715.558 857.19,715.558C859.223,715.558 861.201,714.755 863.125,713.149C865.048,711.543 866.696,709.28 868.07,706.36L874.829,725.632C872.521,731.326 869.787,735.706 866.628,738.772C863.468,741.838 860.102,743.371 856.531,743.371C851.805,743.371 847.711,741.072 844.249,736.473C840.787,731.874 838.122,725.34 836.254,716.872C834.386,708.404 833.452,698.403 833.452,686.869C833.452,675.773 834.372,665.918 836.213,657.304C838.054,648.69 840.623,642.011 843.92,637.266C847.217,632.521 851.036,630.148 855.377,630.148ZM855.789,657.304C853.206,657.304 851.104,659.056 849.483,662.56C847.862,666.064 846.942,670.955 846.722,677.233L864.691,677.233C864.526,670.955 863.66,666.064 862.094,662.56C860.528,659.056 858.426,657.304 855.789,657.304Z" style="fill:rgb(4,25,92);fill-rule:nonzero;"/>
        <path d="M907.305,630.148C909.173,630.148 911.041,631.061 912.909,632.886C914.778,634.711 916.399,637.375 917.773,640.879L912.333,666.064C911.179,664.166 910.107,662.779 909.118,661.903C908.129,661.027 907.085,660.589 905.986,660.589C903.238,660.589 901.068,662.925 899.474,667.597C897.881,672.269 897.084,679.131 897.084,688.183L897.084,740.743L884.143,740.743L884.143,632.557L895.435,632.557L896.424,646.135C899.062,635.477 902.689,630.148 907.305,630.148Z" style="fill:rgb(4,25,92);fill-rule:nonzero;"/>
        <path d="M928.653,621.826C926.4,621.826 924.573,620.074 923.171,616.57C921.77,613.066 921.07,608.613 921.07,603.211C921.07,597.663 921.784,593.137 923.213,589.633C924.641,586.129 926.455,584.377 928.653,584.377C930.851,584.377 932.664,586.129 934.093,589.633C935.521,593.137 936.236,597.663 936.236,603.211C936.236,608.613 935.535,613.066 934.134,616.57C932.733,620.074 930.906,621.826 928.653,621.826ZM922.141,632.557L935.082,632.557L935.082,740.743L922.141,740.743L922.141,632.557Z" style="fill:rgb(4,25,92);fill-rule:nonzero;"/>
        <path d="M987.504,632.557L987.504,787.609L974.564,787.609L974.564,730.231C971.212,738.699 967.008,742.933 961.953,742.933C958.161,742.933 954.782,740.561 951.814,735.816C948.847,731.071 946.539,724.428 944.89,715.887C943.242,707.346 942.418,697.6 942.418,686.65C942.418,675.7 943.242,665.955 944.89,657.414C946.539,648.873 948.847,642.23 951.814,637.485C954.782,632.74 958.161,630.367 961.953,630.367C967.557,630.367 972.063,635.331 975.47,645.259L976.294,632.557L987.504,632.557ZM965.002,714.025C967.86,714.025 970.181,711.47 971.967,706.36C973.753,701.25 974.646,694.68 974.646,686.65C974.646,678.62 973.753,672.05 971.967,666.94C970.181,661.83 967.86,659.275 965.002,659.275C962.145,659.275 959.809,661.794 957.996,666.831C956.183,671.868 955.276,678.474 955.276,686.65C955.276,694.826 956.183,701.433 957.996,706.47C959.809,711.507 962.145,714.025 965.002,714.025Z" style="fill:rgb(4,25,92);fill-rule:nonzero;"/>
        <path d="M1048.39,710.521L1080.21,710.521L1080.21,740.743L1035.29,740.743L1035.29,587.443L1079.31,587.443L1079.31,617.446L1048.39,617.446L1048.39,648.544L1077.66,648.544L1077.66,677.452L1048.39,677.452L1048.39,710.521Z" style="fill:rgb(136,196,8);fill-rule:nonzero;"/>
        <path d="M1115.24,685.774L1128.92,740.743L1114.09,740.743L1110.54,725.194L1106.51,707.017L1102.47,725.194L1098.76,740.743L1084.17,740.743L1097.85,685.774L1085.24,632.557L1099.83,632.557L1103.62,648.982L1106.59,663.874L1109.72,648.982L1113.51,632.557L1127.77,632.557L1115.24,685.774Z" style="fill:rgb(136,196,8);fill-rule:nonzero;"/>
        <path d="M1159.59,630.367C1163.38,630.367 1166.76,632.74 1169.73,637.485C1172.69,642.23 1175,648.873 1176.65,657.414C1178.3,665.955 1179.12,675.7 1179.12,686.65C1179.12,697.6 1178.3,707.346 1176.65,715.887C1175,724.428 1172.69,731.071 1169.73,735.816C1166.76,740.561 1163.38,742.933 1159.59,742.933C1154.53,742.933 1150.33,738.699 1146.98,730.231L1146.98,787.609L1134.04,787.609L1134.04,632.557L1145.25,632.557L1146.07,645.259C1149.48,635.331 1153.98,630.367 1159.59,630.367ZM1156.54,714.025C1159.39,714.025 1161.73,711.507 1163.54,706.47C1165.36,701.433 1166.26,694.826 1166.26,686.65C1166.26,678.474 1165.36,671.868 1163.54,666.831C1161.73,661.794 1159.39,659.275 1156.54,659.275C1153.68,659.275 1151.36,661.83 1149.57,666.94C1147.79,672.05 1146.89,678.62 1146.89,686.65C1146.89,694.68 1147.79,701.25 1149.57,706.36C1151.36,711.47 1153.68,714.025 1156.54,714.025Z" style="fill:rgb(136,196,8);fill-rule:nonzero;"/>
        <path d="M1192.97,621.826C1190.72,621.826 1188.89,620.074 1187.49,616.57C1186.09,613.066 1185.39,608.613 1185.39,603.211C1185.39,597.663 1186.1,593.137 1187.53,589.633C1188.96,586.129 1190.77,584.377 1192.97,584.377C1195.17,584.377 1196.98,586.129 1198.41,589.633C1199.84,593.137 1200.55,597.663 1200.55,603.211C1200.55,608.613 1199.85,613.066 1198.45,616.57C1197.05,620.074 1195.22,621.826 1192.97,621.826ZM1186.46,632.557L1199.4,632.557L1199.4,740.743L1186.46,740.743L1186.46,632.557Z" style="fill:rgb(136,196,8);fill-rule:nonzero;"/>
        <path d="M1232.29,630.148C1234.15,630.148 1236.02,631.061 1237.89,632.886C1239.76,634.711 1241.38,637.375 1242.75,640.879L1237.31,666.064C1236.16,664.166 1235.09,662.779 1234.1,661.903C1233.11,661.027 1232.07,660.589 1230.97,660.589C1228.22,660.589 1226.05,662.925 1224.45,667.597C1222.86,672.269 1222.07,679.131 1222.07,688.183L1222.07,740.743L1209.12,740.743L1209.12,632.557L1220.42,632.557L1221.41,646.135C1224.04,635.477 1227.67,630.148 1232.29,630.148Z" style="fill:rgb(136,196,8);fill-rule:nonzero;"/>
        <path d="M1275.48,632.557L1289.49,632.557L1264.1,787.609L1250.34,787.609L1258.25,739.21L1242.42,632.557L1256.35,632.557L1261.05,666.721L1265.5,701.98L1270.28,666.721L1275.48,632.557Z" style="fill:rgb(136,196,8);fill-rule:nonzero;"/>
        <path d="M1355.1,740.743L1350.81,713.149L1322.38,713.149L1318.09,740.743L1303.67,740.743L1329.55,587.443L1343.97,587.443L1369.69,740.743L1355.1,740.743ZM1336.72,621.826L1327.24,682.27L1346.03,682.27L1336.72,621.826Z" style="fill:rgb(136,196,8);fill-rule:nonzero;"/>
        <rect x="1373.98" y="587.443" width="12.941" height="153.3" style="fill:rgb(136,196,8);fill-rule:nonzero;"/>
        <path d="M1416.26,630.148C1420.71,630.148 1424.56,632.375 1427.8,636.828C1431.04,641.281 1433.53,647.559 1435.26,655.662C1436.99,663.765 1437.85,673.218 1437.85,684.022C1437.85,687.526 1437.72,691.833 1437.44,696.943L1407.52,696.943C1407.91,702.491 1409.03,706.981 1410.9,710.412C1412.77,713.843 1415.16,715.558 1418.07,715.558C1420.11,715.558 1422.08,714.755 1424.01,713.149C1425.93,711.543 1427.58,709.28 1428.95,706.36L1435.71,725.632C1433.4,731.326 1430.67,735.706 1427.51,738.772C1424.35,741.838 1420.99,743.371 1417.41,743.371C1412.69,743.371 1408.59,741.072 1405.13,736.473C1401.67,731.874 1399.01,725.34 1397.14,716.872C1395.27,708.404 1394.33,698.403 1394.33,686.869C1394.33,675.773 1395.25,665.918 1397.1,657.304C1398.94,648.69 1401.51,642.011 1404.8,637.266C1408.1,632.521 1411.92,630.148 1416.26,630.148ZM1416.67,657.304C1414.09,657.304 1411.99,659.056 1410.37,662.56C1408.75,666.064 1407.82,670.955 1407.6,677.233L1425.57,677.233C1425.41,670.955 1424.54,666.064 1422.98,662.56C1421.41,659.056 1419.31,657.304 1416.67,657.304Z" style="fill:rgb(136,196,8);fill-rule:nonzero;"/>
        <path d="M1468.19,630.148C1470.06,630.148 1471.92,631.061 1473.79,632.886C1475.66,634.711 1477.28,637.375 1478.65,640.879L1473.21,666.064C1472.06,664.166 1470.99,662.779 1470,661.903C1469.01,661.027 1467.97,660.589 1466.87,660.589C1464.12,660.589 1461.95,662.925 1460.36,667.597C1458.76,672.269 1457.97,679.131 1457.97,688.183L1457.97,740.743L1445.03,740.743L1445.03,632.557L1456.32,632.557L1457.31,646.135C1459.94,635.477 1463.57,630.148 1468.19,630.148Z" style="fill:rgb(136,196,8);fill-rule:nonzero;"/>
        <path d="M1512.2,736.582C1509.02,740.816 1505.42,742.933 1501.4,742.933C1496.95,742.933 1493.44,739.612 1490.85,732.969C1488.27,726.326 1486.98,715.631 1486.98,700.885L1486.98,659.932L1480.06,659.932L1480.06,632.557L1486.98,632.557L1486.98,605.62L1499.84,601.897L1499.84,632.557L1509.98,632.557L1509.98,659.932L1499.84,659.932L1499.84,700.885C1499.84,705.265 1500.25,708.514 1501.08,710.631C1501.9,712.748 1503.03,713.806 1504.45,713.806C1506.05,713.806 1507.61,712.784 1509.15,710.74L1512.2,736.582Z" style="fill:rgb(136,196,8);fill-rule:nonzero;"/>
        <path d="M1533.8,743.59C1526.6,743.59 1520.34,738.772 1515,729.136L1519.95,705.484C1521.93,708.696 1524.22,711.178 1526.83,712.93C1529.44,714.682 1532.04,715.558 1534.62,715.558C1538.19,715.558 1539.98,713.003 1539.98,707.893C1539.98,705.265 1539.49,703.294 1538.5,701.98C1537.51,700.666 1535.86,699.79 1533.55,699.352C1528.38,698.622 1524.28,695.191 1521.23,689.059C1518.18,682.927 1516.65,674.897 1516.65,664.969C1516.65,654.165 1518.3,645.588 1521.6,639.237C1524.89,632.886 1529.35,629.71 1534.95,629.71C1538.14,629.71 1541.17,630.732 1544.06,632.776C1546.94,634.82 1549.43,637.667 1551.52,641.317L1546.49,664.312C1543.41,659.64 1539.76,657.304 1535.53,657.304C1531.35,657.304 1529.26,659.932 1529.26,665.188C1529.26,667.378 1529.69,669.057 1530.54,670.225C1531.39,671.393 1532.84,672.269 1534.87,672.853C1540.69,674.021 1545.13,677.525 1548.18,683.365C1551.23,689.205 1552.76,697.381 1552.76,707.893C1552.76,718.989 1551.08,727.713 1547.73,734.064C1544.38,740.415 1539.73,743.59 1533.8,743.59Z" style="fill:rgb(136,196,8);fill-rule:nonzero;"/>
    </g>
    <g transform="matrix(1.16158,0,0,1.26536,-314.541,-667.474)">
        <ellipse cx="1375.59" cy="671.612" rx="17.598" ry="16.155" style="fill:rgb(1,137,251);stroke:rgb(1,137,251);stroke-width:0.82px;"/>
    </g>
    <g transform="matrix(0.984342,0,0,0.918193,-121.166,-171.085)">
        <path d="M144.636,566.643C144.636,566.643 127.783,582.493 140.498,582.51C153.212,582.527 198.601,582.528 198.601,582.528C198.601,582.528 221.803,583.73 243.67,561.551C265.537,539.373 385.654,417.403 385.654,417.403L296.701,417.472C296.701,417.472 289.627,416.828 278.674,428.269C267.72,439.709 144.636,566.643 144.636,566.643Z" style="fill:url(#_Linear1);"/>
    </g>
    <g transform="matrix(1.07576,0,0,1.02784,-146.121,-238.077)">
        <path d="M216.352,631.274L323.687,522.629C323.687,522.629 338.186,504.725 367.012,504.689C395.839,504.652 427.741,504.313 427.741,504.313L346.734,587.436C346.734,587.436 306.401,631.324 258.619,631.479C210.837,631.634 216.352,631.274 216.352,631.274Z" style="fill:url(#_Linear2);"/>
    </g>
    <g transform="matrix(0.795509,0,0,0.823583,-73.3143,-131.718)">
        <path d="M335.802,340.546L281.937,395.659C281.937,395.659 272.314,393.056 267.586,389.384C262.859,385.711 258.103,381.132 257.688,380.369C257.274,379.606 254.776,376.424 254.643,373.314C254.51,370.204 254.71,364.945 254.71,364.945C254.71,364.945 258.514,341.303 295.668,340.705C332.823,340.107 335.802,340.546 335.802,340.546Z" style="fill:rgb(1,12,89);"/>
    </g>
    <g transform="matrix(1.07576,0,0,0.823583,-144.614,-130.794)">
        <path d="M254.575,364.615L254.619,267.455C254.619,267.455 256.144,248.624 274.386,248.559C292.627,248.493 476.494,248.466 476.494,248.466C476.494,248.466 492.078,248.784 502.019,254.283C511.959,259.781 516.698,261.964 522.154,268.305C527.609,274.646 533.736,281.334 536.593,293.653C539.45,305.972 540.293,314.449 540.246,320.516C540.199,326.584 540.258,329.722 537.975,342.279C535.692,354.836 532.283,360.334 529.578,365.977C526.872,371.621 521.989,380.497 514.481,388.817C506.973,397.137 506.238,396.896 504.747,398.133C503.256,399.369 507.517,394.709 507.427,394.01C507.336,393.31 511.595,388.55 511.626,380.1C511.657,371.65 511.766,369.326 511.487,367.143C511.208,364.96 507.78,356.08 503.95,352.595C500.12,349.11 496.576,345.353 494.729,344.336C492.881,343.318 487.755,340.569 487.755,340.569L483.188,339.074L479.601,338.241L476.743,338.204L295.743,340.186C295.743,340.186 258.815,341.732 254.575,364.615Z" style="fill:url(#_Linear3);"/>
    </g>
    <g transform="matrix(1.07576,0,0,0.823583,-147.434,-131.03)">
        <path d="M330.673,515.532L401.702,442.623C401.702,442.623 430.29,415.697 461.101,415.689C491.913,415.682 511.756,392.623 516.723,386.465C521.69,380.308 541.808,355.076 540.758,317.627C539.708,280.179 519.549,264.615 517.781,263.091C516.013,261.566 502.507,253.948 502.432,253.734C502.358,253.521 486.874,249.406 486.734,249.406C486.594,249.406 510.653,252.624 510.914,252.693C511.174,252.763 525.494,256.573 540.457,266.515C555.42,276.457 569.988,292.601 579.976,317.641C589.964,342.681 587.428,379.218 587.733,380.878C588.038,382.539 583.853,416.767 565.718,443.102C547.584,469.436 527.308,482.422 511.747,490.704C496.186,498.986 472.846,503.391 459.036,503.376C445.226,503.361 370.371,503.424 370.371,503.424C370.371,503.424 343.716,503.048 330.673,515.532Z" style="fill:url(#_Linear4);"/>
    </g>
    <g transform="matrix(1.10078,0,0,1.01823,-93.5879,-48.2943)">
        <path d="M283.426,197.999L319.799,240.605L247.054,240.605L283.426,197.999Z" style="fill:rgb(0,30,122);"/>
    </g>
    <defs>
        <linearGradient id="_Linear1" x1="0" y1="0" x2="1" y2="-0.00871634" gradientUnits="userSpaceOnUse" gradientTransform="matrix(249.903,-165.137,155.537,265.328,135.751,582.54)"><stop offset="0" style="stop-color:rgb(157,214,0);stop-opacity:1"/><stop offset="1" style="stop-color:rgb(16,91,60);stop-opacity:1"/></linearGradient>
        <linearGradient id="_Linear2" x1="0" y1="0" x2="1" y2="-0.00843703" gradientUnits="userSpaceOnUse" gradientTransform="matrix(211.584,-127.205,122.72,219.316,216.158,631.518)"><stop offset="0" style="stop-color:rgb(0,168,70);stop-opacity:1"/><stop offset="1" style="stop-color:rgb(6,36,60);stop-opacity:1"/></linearGradient>
        <linearGradient id="_Linear3" x1="0" y1="0" x2="1" y2="-4.82082e-05" gradientUnits="userSpaceOnUse" gradientTransform="matrix(285.699,-0.912037,0.705027,369.586,254.55,305.247)"><stop offset="0" style="stop-color:rgb(3,54,155);stop-opacity:1"/><stop offset="0.41" style="stop-color:rgb(0,120,224);stop-opacity:1"/><stop offset="0.6" style="stop-color:rgb(0,71,179);stop-opacity:1"/><stop offset="1" style="stop-color:rgb(8,24,84);stop-opacity:1"/></linearGradient>
        <linearGradient id="_Linear4" x1="0" y1="0" x2="1" y2="-0.00733083" gradientUnits="userSpaceOnUse" gradientTransform="matrix(355.568,-208.905,161.489,459.97,242.317,576.095)"><stop offset="0" style="stop-color:rgb(4,12,73);stop-opacity:1"/><stop offset="0.39" style="stop-color:rgb(3,42,114);stop-opacity:1"/><stop offset="0.78" style="stop-color:rgb(0,136,240);stop-opacity:1"/><stop offset="1" style="stop-color:rgb(101,239,251);stop-opacity:1"/></linearGradient>
    </defs>
</svg>
