<?xml version="1.0" encoding="UTF-8" standalone="no"?>
<!DOCTYPE svg PUBLIC "-//W3C//DTD SVG 1.1//EN" "http://www.w3.org/Graphics/SVG/1.1/DTD/svg11.dtd">
<svg width="100%" height="100%" viewBox="0 0 3000 500" version="1.1" xmlns="http://www.w3.org/2000/svg" xmlns:xlink="http://www.w3.org/1999/xlink" xml:space="preserve" xmlns:serif="http://www.serif.com/" style="fill-rule:evenodd;clip-rule:evenodd;stroke-linecap:round;stroke-linejoin:round;stroke-miterlimit:1.5;">
    <g transform="matrix(2.65572,0,0,1.12992,-1145.61,-506.08)">
        <path d="M687.939,587.443C692.971,587.443 697.366,589.67 701.124,594.123C704.882,598.576 707.786,604.963 709.836,613.285C711.886,621.607 712.911,631.316 712.911,642.412C712.911,653.508 711.886,663.217 709.836,671.539C707.786,679.861 704.882,686.249 701.124,690.702C697.366,695.155 692.971,697.381 687.939,697.381L672.006,697.381L672.006,740.743L656.725,740.743L656.725,587.443L687.939,587.443ZM687.194,666.064C690.424,666.064 692.986,663.947 694.881,659.713C696.775,655.479 697.723,649.785 697.723,642.631C697.723,635.477 696.775,629.783 694.881,625.549C692.986,621.315 690.424,619.198 687.194,619.198L671.913,619.198L671.913,666.064L687.194,666.064Z" style="fill:rgb(4,25,92);fill-rule:nonzero;"/>
        <path d="M753.163,632.557L769.003,632.557L740.305,787.609L724.744,787.609L733.689,739.21L715.799,632.557L731.546,632.557L736.857,666.721L741.889,701.98L747.293,666.721L753.163,632.557Z" style="fill:rgb(4,25,92);fill-rule:nonzero;"/>
        <path d="M830.78,630.148C836.619,630.148 841.216,634.163 844.57,642.193C847.925,650.223 849.602,661.246 849.602,675.262L849.602,740.743L834.973,740.743L834.973,679.642C834.973,673.218 834.336,668.218 833.063,664.641C831.789,661.064 830.003,659.275 827.705,659.275C825.158,659.275 823.139,661.319 821.649,665.407C820.158,669.495 819.412,674.897 819.412,681.613L819.412,740.743L804.877,740.743L804.877,679.642C804.877,673.218 804.255,668.218 803.013,664.641C801.771,661.064 800,659.275 797.702,659.275C795.155,659.275 793.121,661.319 791.599,665.407C790.077,669.495 789.316,674.897 789.316,681.613L789.316,740.743L774.687,740.743L774.687,632.557L787.359,632.557L788.198,644.602C789.813,639.93 791.754,636.353 794.021,633.871C796.289,631.389 798.727,630.148 801.336,630.148C804.318,630.148 806.989,631.645 809.349,634.638C811.71,637.631 813.573,641.755 814.94,647.011C818.667,635.769 823.947,630.148 830.78,630.148Z" style="fill:rgb(4,25,92);fill-rule:nonzero;"/>
        <path d="M882.214,630.148C887.245,630.148 891.594,632.375 895.259,636.828C898.924,641.281 901.734,647.559 903.691,655.662C905.648,663.765 906.626,673.218 906.626,684.022C906.626,687.526 906.471,691.833 906.16,696.943L872.337,696.943C872.772,702.491 874.045,706.981 876.157,710.412C878.269,713.843 880.971,715.558 884.264,715.558C886.562,715.558 888.798,714.755 890.972,713.149C893.147,711.543 895.01,709.28 896.563,706.36L904.204,725.632C901.595,731.326 898.504,735.706 894.932,738.772C891.361,741.838 887.556,743.371 883.518,743.371C878.176,743.371 873.548,741.072 869.635,736.473C865.721,731.874 862.709,725.34 860.597,716.872C858.485,708.404 857.429,698.403 857.429,686.869C857.429,675.773 858.469,665.918 860.55,657.304C862.631,648.69 865.535,642.011 869.262,637.266C872.989,632.521 877.306,630.148 882.214,630.148ZM882.68,657.304C879.76,657.304 877.384,659.056 875.552,662.56C873.719,666.064 872.679,670.955 872.43,677.233L892.743,677.233C892.556,670.955 891.578,666.064 889.808,662.56C888.037,659.056 885.661,657.304 882.68,657.304Z" style="fill:rgb(4,25,92);fill-rule:nonzero;"/>
        <path d="M940.915,630.148C943.027,630.148 945.139,631.061 947.251,632.886C949.364,634.711 951.196,637.375 952.749,640.879L946.599,666.064C945.295,664.166 944.083,662.779 942.965,661.903C941.847,661.027 940.667,660.589 939.425,660.589C936.319,660.589 933.865,662.925 932.064,667.597C930.262,672.269 929.361,679.131 929.361,688.183L929.361,740.743L914.733,740.743L914.733,632.557L927.498,632.557L928.616,646.135C931.598,635.477 935.698,630.148 940.915,630.148Z" style="fill:rgb(4,25,92);fill-rule:nonzero;"/>
        <path d="M965.048,621.826C962.502,621.826 960.436,620.074 958.852,616.57C957.268,613.066 956.476,608.613 956.476,603.211C956.476,597.663 957.284,593.137 958.899,589.633C960.514,586.129 962.564,584.377 965.048,584.377C967.533,584.377 969.583,586.129 971.198,589.633C972.813,593.137 973.621,597.663 973.621,603.211C973.621,608.613 972.829,613.066 971.245,616.57C969.661,620.074 967.595,621.826 965.048,621.826ZM957.687,632.557L972.316,632.557L972.316,740.743L957.687,740.743L957.687,632.557Z" style="fill:rgb(4,25,92);fill-rule:nonzero;"/>
        <path d="M1031.58,632.557L1031.58,787.609L1016.95,787.609L1016.95,730.231C1013.16,738.699 1008.41,742.933 1002.69,742.933C998.406,742.933 994.586,740.561 991.231,735.816C987.877,731.071 985.268,724.428 983.404,715.887C981.541,707.346 980.609,697.6 980.609,686.65C980.609,675.7 981.541,665.955 983.404,657.414C985.268,648.873 987.877,642.23 991.231,637.485C994.586,632.74 998.406,630.367 1002.69,630.367C1009.03,630.367 1014.12,635.331 1017.97,645.259L1018.9,632.557L1031.58,632.557ZM1006.14,714.025C1009.37,714.025 1011.99,711.47 1014.01,706.36C1016.03,701.25 1017.04,694.68 1017.04,686.65C1017.04,678.62 1016.03,672.05 1014.01,666.94C1011.99,661.83 1009.37,659.275 1006.14,659.275C1002.91,659.275 1000.27,661.794 998.219,666.831C996.17,671.868 995.145,678.474 995.145,686.65C995.145,694.826 996.17,701.433 998.219,706.47C1000.27,711.507 1002.91,714.025 1006.14,714.025Z" style="fill:rgb(4,25,92);fill-rule:nonzero;"/>
        <path d="M1114.2,744.028C1104.82,744.028 1097.54,737.933 1092.35,725.742C1087.16,713.551 1084.57,696.505 1084.57,674.605L1084.57,587.443L1099.85,587.443L1099.85,674.605C1099.85,686.285 1101.11,695.483 1103.62,702.199C1106.14,708.915 1109.67,712.273 1114.2,712.273C1118.61,712.273 1122.09,708.915 1124.64,702.199C1127.18,695.483 1128.46,686.285 1128.46,674.605L1128.46,587.443L1143.74,587.443L1143.74,674.605C1143.74,696.505 1141.16,713.551 1136,725.742C1130.85,737.933 1123.58,744.028 1114.2,744.028Z" style="fill:rgb(136,196,8);fill-rule:nonzero;"/>
        <path d="M1183.06,630.148C1188.77,630.148 1193.32,634.528 1196.71,643.288C1200.1,652.048 1201.79,664.166 1201.79,679.642L1201.79,740.743L1187.16,740.743L1187.16,681.613C1187.16,674.605 1186.41,669.13 1184.92,665.188C1183.43,661.246 1181.38,659.275 1178.77,659.275C1175.91,659.275 1173.62,661.538 1171.88,666.064C1170.14,670.59 1169.27,676.503 1169.27,683.803L1169.27,740.743L1154.64,740.743L1154.64,632.557L1167.31,632.557L1168.24,645.259C1170.05,640.441 1172.2,636.718 1174.72,634.09C1177.24,631.462 1180.02,630.148 1183.06,630.148Z" style="fill:rgb(136,196,8);fill-rule:nonzero;"/>
        <path d="M1219.58,621.826C1217.04,621.826 1214.97,620.074 1213.39,616.57C1211.8,613.066 1211.01,608.613 1211.01,603.211C1211.01,597.663 1211.82,593.137 1213.43,589.633C1215.05,586.129 1217.1,584.377 1219.58,584.377C1222.07,584.377 1224.12,586.129 1225.73,589.633C1227.35,593.137 1228.16,597.663 1228.16,603.211C1228.16,608.613 1227.37,613.066 1225.78,616.57C1224.2,620.074 1222.13,621.826 1219.58,621.826ZM1212.22,632.557L1226.85,632.557L1226.85,740.743L1212.22,740.743L1212.22,632.557Z" style="fill:rgb(136,196,8);fill-rule:nonzero;"/>
        <path d="M1270.92,632.557L1286.49,632.557L1267.01,740.743L1252.1,740.743L1232.54,632.557L1248.47,632.557L1253.97,665.188L1259.65,704.389L1265.33,665.188L1270.92,632.557Z" style="fill:rgb(136,196,8);fill-rule:nonzero;"/>
        <path d="M1312.58,630.148C1317.61,630.148 1321.95,632.375 1325.62,636.828C1329.29,641.281 1332.1,647.559 1334.05,655.662C1336.01,663.765 1336.99,673.218 1336.99,684.022C1336.99,687.526 1336.83,691.833 1336.52,696.943L1302.7,696.943C1303.13,702.491 1304.41,706.981 1306.52,710.412C1308.63,713.843 1311.33,715.558 1314.62,715.558C1316.92,715.558 1319.16,714.755 1321.33,713.149C1323.51,711.543 1325.37,709.28 1326.92,706.36L1334.57,725.632C1331.96,731.326 1328.87,735.706 1325.29,738.772C1321.72,741.838 1317.92,743.371 1313.88,743.371C1308.54,743.371 1303.91,741.072 1300,736.473C1296.08,731.874 1293.07,725.34 1290.96,716.872C1288.85,708.404 1287.79,698.403 1287.79,686.869C1287.79,675.773 1288.83,665.918 1290.91,657.304C1292.99,648.69 1295.9,642.011 1299.62,637.266C1303.35,632.521 1307.67,630.148 1312.58,630.148ZM1313.04,657.304C1310.12,657.304 1307.75,659.056 1305.91,662.56C1304.08,666.064 1303.04,670.955 1302.79,677.233L1323.1,677.233C1322.92,670.955 1321.94,666.064 1320.17,662.56C1318.4,659.056 1316.02,657.304 1313.04,657.304Z" style="fill:rgb(136,196,8);fill-rule:nonzero;"/>
        <path d="M1371.28,630.148C1373.39,630.148 1375.5,631.061 1377.61,632.886C1379.73,634.711 1381.56,637.375 1383.11,640.879L1376.96,666.064C1375.66,664.166 1374.44,662.779 1373.33,661.903C1372.21,661.027 1371.03,660.589 1369.79,660.589C1366.68,660.589 1364.23,662.925 1362.42,667.597C1360.62,672.269 1359.72,679.131 1359.72,688.183L1359.72,740.743L1345.09,740.743L1345.09,632.557L1357.86,632.557L1358.98,646.135C1361.96,635.477 1366.06,630.148 1371.28,630.148Z" style="fill:rgb(136,196,8);fill-rule:nonzero;"/>
        <path d="M1405.57,743.59C1397.43,743.59 1390.35,738.772 1384.32,729.136L1389.91,705.484C1392.15,708.696 1394.74,711.178 1397.69,712.93C1400.64,714.682 1403.58,715.558 1406.5,715.558C1410.54,715.558 1412.56,713.003 1412.56,707.893C1412.56,705.265 1412,703.294 1410.88,701.98C1409.76,700.666 1407.9,699.79 1405.29,699.352C1399.45,698.622 1394.8,695.191 1391.36,689.059C1387.91,682.927 1386.18,674.897 1386.18,664.969C1386.18,654.165 1388.05,645.588 1391.78,639.237C1395.5,632.886 1400.54,629.71 1406.87,629.71C1410.47,629.71 1413.91,630.732 1417.17,632.776C1420.43,634.82 1423.24,637.667 1425.6,641.317L1419.92,664.312C1416.44,659.64 1412.31,657.304 1407.52,657.304C1402.8,657.304 1400.44,659.932 1400.44,665.188C1400.44,667.378 1400.92,669.057 1401.89,670.225C1402.85,671.393 1404.48,672.269 1406.78,672.853C1413.36,674.021 1418.38,677.525 1421.83,683.365C1425.27,689.205 1427,697.381 1427,707.893C1427,718.989 1425.1,727.713 1421.31,734.064C1417.52,740.415 1412.28,743.59 1405.57,743.59Z" style="fill:rgb(136,196,8);fill-rule:nonzero;"/>
        <path d="M1442.18,621.826C1439.64,621.826 1437.57,620.074 1435.99,616.57C1434.4,613.066 1433.61,608.613 1433.61,603.211C1433.61,597.663 1434.42,593.137 1436.04,589.633C1437.65,586.129 1439.7,584.377 1442.18,584.377C1444.67,584.377 1446.72,586.129 1448.34,589.633C1449.95,593.137 1450.76,597.663 1450.76,603.211C1450.76,608.613 1449.96,613.066 1448.38,616.57C1446.8,620.074 1444.73,621.826 1442.18,621.826ZM1434.82,632.557L1449.45,632.557L1449.45,740.743L1434.82,740.743L1434.82,632.557Z" style="fill:rgb(136,196,8);fill-rule:nonzero;"/>
        <path d="M1493.43,736.582C1489.83,740.816 1485.76,742.933 1481.23,742.933C1476.19,742.933 1472.22,739.612 1469.3,732.969C1466.38,726.326 1464.92,715.631 1464.92,700.885L1464.92,659.932L1457.09,659.932L1457.09,632.557L1464.92,632.557L1464.92,605.62L1479.46,601.897L1479.46,632.557L1490.92,632.557L1490.92,659.932L1479.46,659.932L1479.46,700.885C1479.46,705.265 1479.92,708.514 1480.85,710.631C1481.79,712.748 1483.06,713.806 1484.67,713.806C1486.48,713.806 1488.25,712.784 1489.99,710.74L1493.43,736.582Z" style="fill:rgb(136,196,8);fill-rule:nonzero;"/>
        <path d="M1532.01,632.557L1547.85,632.557L1519.15,787.609L1503.59,787.609L1512.53,739.21L1494.64,632.557L1510.39,632.557L1515.7,666.721L1520.73,701.98L1526.14,666.721L1532.01,632.557Z" style="fill:rgb(136,196,8);fill-rule:nonzero;"/>
    </g>
    <g transform="matrix(1.28411,0,0,1.39883,-349.097,-764.255)">
        <ellipse cx="1375.59" cy="671.612" rx="17.598" ry="16.155" style="fill:rgb(1,137,251);stroke:rgb(1,137,251);stroke-width:0.74px;"/>
    </g>
    <g transform="matrix(1.0818,0,0,1.01357,-131.397,-214.513)">
        <path d="M144.636,566.643C144.636,566.643 127.783,582.493 140.498,582.51C153.212,582.527 198.601,582.528 198.601,582.528C198.601,582.528 221.803,583.73 243.67,561.551C265.537,539.373 385.654,417.403 385.654,417.403L296.701,417.472C296.701,417.472 289.627,416.828 278.674,428.269C267.72,439.709 144.636,566.643 144.636,566.643Z" style="fill:url(#_Linear1);"/>
    </g>
    <g transform="matrix(1.18227,0,0,1.13461,-158.823,-288.464)">
        <path d="M216.352,631.274L323.687,522.629C323.687,522.629 338.186,504.725 367.012,504.689C395.839,504.652 427.741,504.313 427.741,504.313L346.734,587.436C346.734,587.436 306.401,631.324 258.619,631.479C210.837,631.634 216.352,631.274 216.352,631.274Z" style="fill:url(#_Linear2);"/>
    </g>
    <g transform="matrix(0.874271,0,0,0.909136,-78.808,-171.056)">
        <path d="M335.802,340.546L281.937,395.659C281.937,395.659 272.314,393.056 267.586,389.384C262.859,385.711 258.103,381.132 257.688,380.369C257.274,379.606 254.776,376.424 254.643,373.314C254.51,370.204 254.71,364.945 254.71,364.945C254.71,364.945 258.514,341.303 295.668,340.705C332.823,340.107 335.802,340.546 335.802,340.546Z" style="fill:rgb(1,12,89);"/>
    </g>
    <g transform="matrix(1.18227,0,0,0.909136,-157.167,-170.037)">
        <path d="M254.575,364.615L254.619,267.455C254.619,267.455 256.144,248.624 274.386,248.559C292.627,248.493 476.494,248.466 476.494,248.466C476.494,248.466 492.078,248.784 502.019,254.283C511.959,259.781 516.698,261.964 522.154,268.305C527.609,274.646 533.736,281.334 536.593,293.653C539.45,305.972 540.293,314.449 540.246,320.516C540.199,326.584 540.258,329.722 537.975,342.279C535.692,354.836 532.283,360.334 529.578,365.977C526.872,371.621 521.989,380.497 514.481,388.817C506.973,397.137 506.238,396.896 504.747,398.133C503.256,399.369 507.517,394.709 507.427,394.01C507.336,393.31 511.595,388.55 511.626,380.1C511.657,371.65 511.766,369.326 511.487,367.143C511.208,364.96 507.78,356.08 503.95,352.595C500.12,349.11 496.576,345.353 494.729,344.336C492.881,343.318 487.755,340.569 487.755,340.569L483.188,339.074L479.601,338.241L476.743,338.204L295.743,340.186C295.743,340.186 258.815,341.732 254.575,364.615Z" style="fill:url(#_Linear3);"/>
    </g>
    <g transform="matrix(1.18227,0,0,0.909136,-160.266,-170.297)">
        <path d="M330.673,515.532L401.702,442.623C401.702,442.623 430.29,415.697 461.101,415.689C491.913,415.682 511.756,392.623 516.723,386.465C521.69,380.308 541.808,355.076 540.758,317.627C539.708,280.179 519.549,264.615 517.781,263.091C516.013,261.566 502.507,253.948 502.432,253.734C502.358,253.521 486.874,249.406 486.734,249.406C486.594,249.406 510.653,252.624 510.914,252.693C511.174,252.763 525.494,256.573 540.457,266.515C555.42,276.457 569.988,292.601 579.976,317.641C589.964,342.681 587.428,379.218 587.733,380.878C588.038,382.539 583.853,416.767 565.718,443.102C547.584,469.436 527.308,482.422 511.747,490.704C496.186,498.986 472.846,503.391 459.036,503.376C445.226,503.361 370.371,503.424 370.371,503.424C370.371,503.424 343.716,503.048 330.673,515.532Z" style="fill:url(#_Linear4);"/>
    </g>
    <g transform="matrix(1.20977,0,0,1.124,-101.089,-78.9669)">
        <path d="M283.426,197.999L319.799,240.605L247.054,240.605L283.426,197.999Z" style="fill:rgb(0,30,122);"/>
    </g>
    <defs>
        <linearGradient id="_Linear1" x1="0" y1="0" x2="1" y2="-0.00472263" gradientUnits="userSpaceOnUse" gradientTransform="matrix(249.903,-165.137,155.537,265.328,135.751,582.54)"><stop offset="0" style="stop-color:rgb(157,214,0);stop-opacity:1"/><stop offset="1" style="stop-color:rgb(16,91,60);stop-opacity:1"/></linearGradient>
        <linearGradient id="_Linear2" x1="0" y1="0" x2="1" y2="-0.00457018" gradientUnits="userSpaceOnUse" gradientTransform="matrix(211.584,-127.205,122.72,219.316,216.158,631.518)"><stop offset="0" style="stop-color:rgb(0,168,70);stop-opacity:1"/><stop offset="1" style="stop-color:rgb(6,36,60);stop-opacity:1"/></linearGradient>
        <linearGradient id="_Linear3" x1="0" y1="0" x2="1" y2="-2.60548e-05" gradientUnits="userSpaceOnUse" gradientTransform="matrix(285.699,-0.912037,0.705027,369.586,254.55,305.247)"><stop offset="0" style="stop-color:rgb(3,54,155);stop-opacity:1"/><stop offset="0.41" style="stop-color:rgb(0,120,224);stop-opacity:1"/><stop offset="0.6" style="stop-color:rgb(0,71,179);stop-opacity:1"/><stop offset="1" style="stop-color:rgb(8,24,84);stop-opacity:1"/></linearGradient>
        <linearGradient id="_Linear4" x1="0" y1="0" x2="1" y2="-0.00396811" gradientUnits="userSpaceOnUse" gradientTransform="matrix(355.568,-208.905,161.489,459.97,242.317,576.095)"><stop offset="0" style="stop-color:rgb(4,12,73);stop-opacity:1"/><stop offset="0.39" style="stop-color:rgb(3,42,114);stop-opacity:1"/><stop offset="0.78" style="stop-color:rgb(0,136,240);stop-opacity:1"/><stop offset="1" style="stop-color:rgb(101,239,251);stop-opacity:1"/></linearGradient>
    </defs>
</svg>
