<?xml version="1.0" encoding="UTF-8" standalone="no"?>
<!DOCTYPE svg PUBLIC "-//W3C//DTD SVG 1.1//EN" "http://www.w3.org/Graphics/SVG/1.1/DTD/svg11.dtd">
<svg width="100%" height="100%" viewBox="0 0 3000 500" version="1.1" xmlns="http://www.w3.org/2000/svg" xmlns:xlink="http://www.w3.org/1999/xlink" xml:space="preserve" xmlns:serif="http://www.serif.com/" style="fill-rule:evenodd;clip-rule:evenodd;stroke-linecap:round;stroke-linejoin:round;stroke-miterlimit:1.5;">
    <g transform="matrix(2.68709,0,0,1.08192,-1189.96,-482.233)">
        <path d="M685.884,587.443C690.646,587.443 694.805,589.67 698.361,594.123C701.918,598.576 704.666,604.963 706.606,613.285C708.546,621.607 709.516,631.316 709.516,642.412C709.516,653.508 708.546,663.217 706.606,671.539C704.666,679.861 701.918,686.249 698.361,690.702C694.805,695.155 690.646,697.381 685.884,697.381L670.806,697.381L670.806,740.743L656.345,740.743L656.345,587.443L685.884,587.443ZM685.179,666.064C688.235,666.064 690.66,663.947 692.453,659.713C694.246,655.479 695.143,649.785 695.143,642.631C695.143,635.477 694.246,629.783 692.453,625.549C690.66,621.315 688.235,619.198 685.179,619.198L670.718,619.198L670.718,666.064L685.179,666.064Z" style="fill:rgb(4,25,92);fill-rule:nonzero;"/>
        <path d="M747.608,632.557L762.598,632.557L735.44,787.609L720.714,787.609L729.179,739.21L712.249,632.557L727.151,632.557L732.177,666.721L736.939,701.98L742.053,666.721L747.608,632.557Z" style="fill:rgb(4,25,92);fill-rule:nonzero;"/>
        <path d="M821.06,630.148C826.585,630.148 830.935,634.163 834.11,642.193C837.284,650.223 838.871,661.246 838.871,675.262L838.871,740.743L825.028,740.743L825.028,679.642C825.028,673.218 824.425,668.218 823.22,664.641C822.015,661.064 820.325,659.275 818.15,659.275C815.74,659.275 813.829,661.319 812.418,665.407C811.007,669.495 810.302,674.897 810.302,681.613L810.302,740.743L796.546,740.743L796.546,679.642C796.546,673.218 795.959,668.218 794.783,664.641C793.607,661.064 791.932,659.275 789.757,659.275C787.347,659.275 785.421,661.319 783.981,665.407C782.541,669.495 781.821,674.897 781.821,681.613L781.821,740.743L767.977,740.743L767.977,632.557L779.969,632.557L780.763,644.602C782.291,639.93 784.128,636.353 786.274,633.871C788.419,631.389 790.727,630.148 793.196,630.148C796.017,630.148 798.545,631.645 800.779,634.638C803.013,637.631 804.776,641.755 806.07,647.011C809.597,635.769 814.593,630.148 821.06,630.148Z" style="fill:rgb(4,25,92);fill-rule:nonzero;"/>
        <path d="M869.733,630.148C874.495,630.148 878.61,632.375 882.078,636.828C885.547,641.281 888.207,647.559 890.058,655.662C891.91,663.765 892.836,673.218 892.836,684.022C892.836,687.526 892.689,691.833 892.395,696.943L860.387,696.943C860.798,702.491 862.003,706.981 864.002,710.412C866.001,713.843 868.558,715.558 871.673,715.558C873.848,715.558 875.965,714.755 878.022,713.149C880.08,711.543 881.843,709.28 883.313,706.36L890.543,725.632C888.074,731.326 885.15,735.706 881.77,738.772C878.389,741.838 874.789,743.371 870.968,743.371C865.912,743.371 861.533,741.072 857.83,736.473C854.126,731.874 851.275,725.34 849.276,716.872C847.278,708.404 846.278,698.403 846.278,686.869C846.278,675.773 847.263,665.918 849.232,657.304C851.202,648.69 853.95,642.011 857.477,637.266C861.004,632.521 865.089,630.148 869.733,630.148ZM870.174,657.304C867.411,657.304 865.163,659.056 863.429,662.56C861.695,666.064 860.71,670.955 860.475,677.233L879.697,677.233C879.521,670.955 878.595,666.064 876.92,662.56C875.245,659.056 872.996,657.304 870.174,657.304Z" style="fill:rgb(4,25,92);fill-rule:nonzero;"/>
        <path d="M925.285,630.148C927.284,630.148 929.282,631.061 931.281,632.886C933.28,634.711 935.014,637.375 936.484,640.879L930.664,666.064C929.429,664.166 928.283,662.779 927.225,661.903C926.167,661.027 925.05,660.589 923.874,660.589C920.935,660.589 918.613,662.925 916.908,667.597C915.203,672.269 914.351,679.131 914.351,688.183L914.351,740.743L900.507,740.743L900.507,632.557L912.588,632.557L913.646,646.135C916.467,635.477 920.347,630.148 925.285,630.148Z" style="fill:rgb(4,25,92);fill-rule:nonzero;"/>
        <path d="M948.123,621.826C945.713,621.826 943.758,620.074 942.259,616.57C940.76,613.066 940.011,608.613 940.011,603.211C940.011,597.663 940.775,593.137 942.303,589.633C943.832,586.129 945.772,584.377 948.123,584.377C950.474,584.377 952.414,586.129 953.943,589.633C955.471,593.137 956.235,597.663 956.235,603.211C956.235,608.613 955.486,613.066 953.987,616.57C952.488,620.074 950.533,621.826 948.123,621.826ZM941.157,632.557L955.001,632.557L955.001,740.743L941.157,740.743L941.157,632.557Z" style="fill:rgb(4,25,92);fill-rule:nonzero;"/>
        <path d="M1011.08,632.557L1011.08,787.609L997.238,787.609L997.238,730.231C993.652,738.699 989.155,742.933 983.746,742.933C979.69,742.933 976.075,740.561 972.901,735.816C969.726,731.071 967.257,724.428 965.494,715.887C963.73,707.346 962.849,697.6 962.849,686.65C962.849,675.7 963.73,665.955 965.494,657.414C967.257,648.873 969.726,642.23 972.901,637.485C976.075,632.74 979.69,630.367 983.746,630.367C989.743,630.367 994.563,635.331 998.208,645.259L999.089,632.557L1011.08,632.557ZM987.009,714.025C990.066,714.025 992.55,711.47 994.46,706.36C996.371,701.25 997.326,694.68 997.326,686.65C997.326,678.62 996.371,672.05 994.46,666.94C992.55,661.83 990.066,659.275 987.009,659.275C983.952,659.275 981.454,661.794 979.514,666.831C977.574,671.868 976.604,678.474 976.604,686.65C976.604,694.826 977.574,701.433 979.514,706.47C981.454,711.507 983.952,714.025 987.009,714.025Z" style="fill:rgb(4,25,92);fill-rule:nonzero;"/>
        <path d="M1136.54,587.443L1152.32,587.443L1130.71,740.743L1117.05,740.743L1111.23,698.038L1104.17,646.573L1097.3,698.038L1091.39,740.743L1077.99,740.743L1056.29,587.443L1072.08,587.443L1079.84,648.544L1084.86,692.125L1098.88,587.443L1109.29,587.443L1123.66,692.782L1129.04,648.544L1136.54,587.443Z" style="fill:rgb(136,196,8);fill-rule:nonzero;"/>
        <path d="M1199.23,632.557L1199.23,740.743L1187.24,740.743L1186.36,727.822C1182.65,737.896 1177.83,742.933 1171.89,742.933C1167.84,742.933 1164.24,740.561 1161.09,735.816C1157.95,731.071 1155.49,724.428 1153.73,715.887C1151.97,707.346 1151.08,697.6 1151.08,686.65C1151.08,675.7 1151.97,665.955 1153.73,657.414C1155.49,648.873 1157.95,642.23 1161.09,637.485C1164.24,632.74 1167.84,630.367 1171.89,630.367C1174.83,630.367 1177.54,631.645 1180.01,634.2C1182.48,636.755 1184.59,640.441 1186.36,645.259L1187.24,632.557L1199.23,632.557ZM1175.16,714.025C1178.21,714.025 1180.71,711.507 1182.65,706.47C1184.59,701.433 1185.56,694.826 1185.56,686.65C1185.56,678.474 1184.59,671.868 1182.65,666.831C1180.71,661.794 1178.21,659.275 1175.16,659.275C1172.1,659.275 1169.62,661.83 1167.7,666.94C1165.8,672.05 1164.84,678.62 1164.84,686.65C1164.84,694.68 1165.8,701.25 1167.7,706.36C1169.62,711.47 1172.1,714.025 1175.16,714.025Z" style="fill:rgb(136,196,8);fill-rule:nonzero;"/>
        <path d="M1234.41,630.148C1236.41,630.148 1238.41,631.061 1240.41,632.886C1242.41,634.711 1244.14,637.375 1245.61,640.879L1239.79,666.064C1238.56,664.166 1237.41,662.779 1236.35,661.903C1235.29,661.027 1234.18,660.589 1233,660.589C1230.06,660.589 1227.74,662.925 1226.03,667.597C1224.33,672.269 1223.48,679.131 1223.48,688.183L1223.48,740.743L1209.63,740.743L1209.63,632.557L1221.71,632.557L1222.77,646.135C1225.59,635.477 1229.47,630.148 1234.41,630.148Z" style="fill:rgb(136,196,8);fill-rule:nonzero;"/>
        <path d="M1270.12,630.148C1274.88,630.148 1279,632.375 1282.47,636.828C1285.94,641.281 1288.6,647.559 1290.45,655.662C1292.3,663.765 1293.23,673.218 1293.23,684.022C1293.23,687.526 1293.08,691.833 1292.78,696.943L1260.78,696.943C1261.19,702.491 1262.39,706.981 1264.39,710.412C1266.39,713.843 1268.95,715.558 1272.06,715.558C1274.24,715.558 1276.35,714.755 1278.41,713.149C1280.47,711.543 1282.23,709.28 1283.7,706.36L1290.93,725.632C1288.46,731.326 1285.54,735.706 1282.16,738.772C1278.78,741.838 1275.18,743.371 1271.36,743.371C1266.3,743.371 1261.92,741.072 1258.22,736.473C1254.52,731.874 1251.66,725.34 1249.67,716.872C1247.67,708.404 1246.67,698.403 1246.67,686.869C1246.67,675.773 1247.65,665.918 1249.62,657.304C1251.59,648.69 1254.34,642.011 1257.87,637.266C1261.39,632.521 1265.48,630.148 1270.12,630.148ZM1270.56,657.304C1267.8,657.304 1265.55,659.056 1263.82,662.56C1262.08,666.064 1261.1,670.955 1260.86,677.233L1280.09,677.233C1279.91,670.955 1278.99,666.064 1277.31,662.56C1275.63,659.056 1273.38,657.304 1270.56,657.304Z" style="fill:rgb(136,196,8);fill-rule:nonzero;"/>
        <path d="M1328.06,630.148C1333.4,630.148 1337.65,634.601 1340.8,643.507C1343.94,652.413 1345.51,664.458 1345.51,679.642L1345.51,740.743L1331.67,740.743L1331.67,681.613C1331.67,674.605 1330.98,669.13 1329.6,665.188C1328.22,661.246 1326.29,659.275 1323.82,659.275C1321.12,659.275 1318.93,661.538 1317.25,666.064C1315.58,670.59 1314.74,676.503 1314.74,683.803L1314.74,740.743L1300.9,740.743L1300.9,587.443L1314.74,587.443L1314.74,644.383C1318.09,634.893 1322.53,630.148 1328.06,630.148Z" style="fill:rgb(136,196,8);fill-rule:nonzero;"/>
        <path d="M1376.82,743.152C1372,743.152 1367.78,740.78 1364.16,736.035C1360.55,731.29 1357.77,724.683 1355.83,716.215C1353.89,707.747 1352.92,697.892 1352.92,686.65C1352.92,675.408 1353.89,665.553 1355.83,657.085C1357.77,648.617 1360.55,642.011 1364.16,637.266C1367.78,632.521 1372,630.148 1376.82,630.148C1381.64,630.148 1385.87,632.521 1389.52,637.266C1393.16,642.011 1395.95,648.617 1397.89,657.085C1399.83,665.553 1400.8,675.408 1400.8,686.65C1400.8,697.892 1399.83,707.747 1397.89,716.215C1395.95,724.683 1393.16,731.29 1389.52,736.035C1385.87,740.78 1381.64,743.152 1376.82,743.152ZM1376.82,714.025C1379.87,714.025 1382.34,711.47 1384.22,706.36C1386.11,701.25 1387.05,694.68 1387.05,686.65C1387.05,678.62 1386.11,672.05 1384.22,666.94C1382.34,661.83 1379.87,659.275 1376.82,659.275C1373.82,659.275 1371.38,661.83 1369.5,666.94C1367.62,672.05 1366.68,678.62 1366.68,686.65C1366.68,694.68 1367.62,701.25 1369.5,706.36C1371.38,711.47 1373.82,714.025 1376.82,714.025Z" style="fill:rgb(136,196,8);fill-rule:nonzero;"/>
        <path d="M1452.47,632.557L1452.47,740.743L1440.48,740.743L1439.6,728.26C1437.95,733.078 1435.94,736.765 1433.56,739.32C1431.18,741.875 1428.58,743.152 1425.76,743.152C1420.41,743.152 1416.14,738.772 1412.97,730.012C1409.8,721.252 1408.21,709.134 1408.21,693.658L1408.21,632.557L1422.05,632.557L1422.05,691.687C1422.05,698.695 1422.74,704.17 1424.12,708.112C1425.51,712.054 1427.4,714.025 1429.81,714.025C1432.46,714.025 1434.59,711.726 1436.2,707.127C1437.82,702.528 1438.63,696.578 1438.63,689.278L1438.63,632.557L1452.47,632.557Z" style="fill:rgb(136,196,8);fill-rule:nonzero;"/>
        <path d="M1479.81,743.59C1472.11,743.59 1465.41,738.772 1459.7,729.136L1464.99,705.484C1467.11,708.696 1469.57,711.178 1472.36,712.93C1475.15,714.682 1477.93,715.558 1480.69,715.558C1484.51,715.558 1486.42,713.003 1486.42,707.893C1486.42,705.265 1485.89,703.294 1484.83,701.98C1483.78,700.666 1482.01,699.79 1479.54,699.352C1474.02,698.622 1469.62,695.191 1466.36,689.059C1463.1,682.927 1461.47,674.897 1461.47,664.969C1461.47,654.165 1463.23,645.588 1466.76,639.237C1470.29,632.886 1475.05,629.71 1481.04,629.71C1484.45,629.71 1487.7,630.732 1490.79,632.776C1493.87,634.82 1496.53,637.667 1498.77,641.317L1493.39,664.312C1490.1,659.64 1486.19,657.304 1481.66,657.304C1477.19,657.304 1474.96,659.932 1474.96,665.188C1474.96,667.378 1475.41,669.057 1476.33,670.225C1477.24,671.393 1478.78,672.269 1480.95,672.853C1487.19,674.021 1491.93,677.525 1495.19,683.365C1498.46,689.205 1500.09,697.381 1500.09,707.893C1500.09,718.989 1498.3,727.713 1494.71,734.064C1491.12,740.415 1486.16,743.59 1479.81,743.59Z" style="fill:rgb(136,196,8);fill-rule:nonzero;"/>
        <path d="M1527.87,630.148C1532.63,630.148 1536.74,632.375 1540.21,636.828C1543.68,641.281 1546.34,647.559 1548.19,655.662C1550.04,663.765 1550.97,673.218 1550.97,684.022C1550.97,687.526 1550.82,691.833 1550.53,696.943L1518.52,696.943C1518.93,702.491 1520.13,706.981 1522.13,710.412C1524.13,713.843 1526.69,715.558 1529.81,715.558C1531.98,715.558 1534.1,714.755 1536.15,713.149C1538.21,711.543 1539.97,709.28 1541.44,706.36L1548.67,725.632C1546.21,731.326 1543.28,735.706 1539.9,738.772C1536.52,741.838 1532.92,743.371 1529.1,743.371C1524.04,743.371 1519.66,741.072 1515.96,736.473C1512.26,731.874 1509.41,725.34 1507.41,716.872C1505.41,708.404 1504.41,698.403 1504.41,686.869C1504.41,675.773 1505.39,665.918 1507.36,657.304C1509.33,648.69 1512.08,642.011 1515.61,637.266C1519.13,632.521 1523.22,630.148 1527.87,630.148ZM1528.31,657.304C1525.54,657.304 1523.29,659.056 1521.56,662.56C1519.83,666.064 1518.84,670.955 1518.61,677.233L1537.83,677.233C1537.65,670.955 1536.73,666.064 1535.05,662.56C1533.38,659.056 1531.13,657.304 1528.31,657.304Z" style="fill:rgb(136,196,8);fill-rule:nonzero;"/>
    </g>
    <g transform="matrix(1.22956,0,0,1.33941,-333.61,-729.439)">
        <ellipse cx="1375.59" cy="671.612" rx="17.598" ry="16.155" style="fill:rgb(1,137,251);stroke:rgb(1,137,251);stroke-width:0.78px;"/>
    </g>
    <g transform="matrix(1.03584,0,0,0.967907,-125.158,-202.331)">
        <path d="M144.636,566.643C144.636,566.643 127.783,582.493 140.498,582.51C153.212,582.527 198.601,582.528 198.601,582.528C198.601,582.528 221.803,583.73 243.67,561.551C265.537,539.373 385.654,417.403 385.654,417.403L296.701,417.472C296.701,417.472 289.627,416.828 278.674,428.269C267.72,439.709 144.636,566.643 144.636,566.643Z" style="fill:url(#_Linear1);"/>
    </g>
    <g transform="matrix(1.13204,0,0,1.08349,-151.419,-272.951)">
        <path d="M216.352,631.274L323.687,522.629C323.687,522.629 338.186,504.725 367.012,504.689C395.839,504.652 427.741,504.313 427.741,504.313L346.734,587.436C346.734,587.436 306.401,631.324 258.619,631.479C210.837,631.634 216.352,631.274 216.352,631.274Z" style="fill:url(#_Linear2);"/>
    </g>
    <g transform="matrix(0.837129,0,0,0.868175,-74.8032,-160.833)">
        <path d="M335.802,340.546L281.937,395.659C281.937,395.659 272.314,393.056 267.586,389.384C262.859,385.711 258.103,381.132 257.688,380.369C257.274,379.606 254.776,376.424 254.643,373.314C254.51,370.204 254.71,364.945 254.71,364.945C254.71,364.945 258.514,341.303 295.668,340.705C332.823,340.107 335.802,340.546 335.802,340.546Z" style="fill:rgb(1,12,89);"/>
    </g>
    <g transform="matrix(1.13204,0,0,0.868175,-149.833,-159.859)">
        <path d="M254.575,364.615L254.619,267.455C254.619,267.455 256.144,248.624 274.386,248.559C292.627,248.493 476.494,248.466 476.494,248.466C476.494,248.466 492.078,248.784 502.019,254.283C511.959,259.781 516.698,261.964 522.154,268.305C527.609,274.646 533.736,281.334 536.593,293.653C539.45,305.972 540.293,314.449 540.246,320.516C540.199,326.584 540.258,329.722 537.975,342.279C535.692,354.836 532.283,360.334 529.578,365.977C526.872,371.621 521.989,380.497 514.481,388.817C506.973,397.137 506.238,396.896 504.747,398.133C503.256,399.369 507.517,394.709 507.427,394.01C507.336,393.31 511.595,388.55 511.626,380.1C511.657,371.65 511.766,369.326 511.487,367.143C511.208,364.96 507.78,356.08 503.95,352.595C500.12,349.11 496.576,345.353 494.729,344.336C492.881,343.318 487.755,340.569 487.755,340.569L483.188,339.074L479.601,338.241L476.743,338.204L295.743,340.186C295.743,340.186 258.815,341.732 254.575,364.615Z" style="fill:url(#_Linear3);"/>
    </g>
    <g transform="matrix(1.13204,0,0,0.868175,-152.801,-160.108)">
        <path d="M330.673,515.532L401.702,442.623C401.702,442.623 430.29,415.697 461.101,415.689C491.913,415.682 511.756,392.623 516.723,386.465C521.69,380.308 541.808,355.076 540.758,317.627C539.708,280.179 519.549,264.615 517.781,263.091C516.013,261.566 502.507,253.948 502.432,253.734C502.358,253.521 486.874,249.406 486.734,249.406C486.594,249.406 510.653,252.624 510.914,252.693C511.174,252.763 525.494,256.573 540.457,266.515C555.42,276.457 569.988,292.601 579.976,317.641C589.964,342.681 587.428,379.218 587.733,380.878C588.038,382.539 583.853,416.767 565.718,443.102C547.584,469.436 527.308,482.422 511.747,490.704C496.186,498.986 472.846,503.391 459.036,503.376C445.226,503.361 370.371,503.424 370.371,503.424C370.371,503.424 343.716,503.048 330.673,515.532Z" style="fill:url(#_Linear4);"/>
    </g>
    <g transform="matrix(1.15838,0,0,1.07336,-96.1375,-72.8926)">
        <path d="M283.426,197.999L319.799,240.605L247.054,240.605L283.426,197.999Z" style="fill:rgb(0,30,122);"/>
    </g>
    <defs>
        <linearGradient id="_Linear1" x1="0" y1="0" x2="1" y2="-0.00714976" gradientUnits="userSpaceOnUse" gradientTransform="matrix(249.903,-165.137,155.537,265.328,135.751,582.54)"><stop offset="0" style="stop-color:rgb(157,214,0);stop-opacity:1"/><stop offset="1" style="stop-color:rgb(16,91,60);stop-opacity:1"/></linearGradient>
        <linearGradient id="_Linear2" x1="0" y1="0" x2="1" y2="-0.00691999" gradientUnits="userSpaceOnUse" gradientTransform="matrix(211.584,-127.205,122.72,219.316,216.158,631.518)"><stop offset="0" style="stop-color:rgb(0,168,70);stop-opacity:1"/><stop offset="1" style="stop-color:rgb(6,36,60);stop-opacity:1"/></linearGradient>
        <linearGradient id="_Linear3" x1="0" y1="0" x2="1" y2="-3.95051e-05" gradientUnits="userSpaceOnUse" gradientTransform="matrix(285.699,-0.912037,0.705027,369.586,254.55,305.247)"><stop offset="0" style="stop-color:rgb(3,54,155);stop-opacity:1"/><stop offset="0.41" style="stop-color:rgb(0,120,224);stop-opacity:1"/><stop offset="0.6" style="stop-color:rgb(0,71,179);stop-opacity:1"/><stop offset="1" style="stop-color:rgb(8,24,84);stop-opacity:1"/></linearGradient>
        <linearGradient id="_Linear4" x1="0" y1="0" x2="1" y2="-0.00601099" gradientUnits="userSpaceOnUse" gradientTransform="matrix(355.568,-208.905,161.489,459.97,242.317,576.095)"><stop offset="0" style="stop-color:rgb(4,12,73);stop-opacity:1"/><stop offset="0.39" style="stop-color:rgb(3,42,114);stop-opacity:1"/><stop offset="0.78" style="stop-color:rgb(0,136,240);stop-opacity:1"/><stop offset="1" style="stop-color:rgb(101,239,251);stop-opacity:1"/></linearGradient>
    </defs>
</svg>
